<?xml version="1.0" encoding="UTF-8"?><svg id="Layer_2" xmlns="http://www.w3.org/2000/svg" viewBox="0 0 66.33 69.27"><defs>
<style>.cls-1{fill:#f9cb0d;}.cls-2{fill:#f29214;}.cls-3{fill:#e6e7e8;}.cls-4{fill:#ec008c;}.cls-5{fill:#e5e5e5;}.cls-6{fill:#d3d0a7;}.cls-7{fill:#231f20;}.cls-8{fill:#474641;}.cls-9{fill:#3c2415;}
.flapping {
        transform-box: fill-box;
        transform-origin: 100% 100%;
        animation: flap .2s linear infinite;
        }

        @keyframes flap {
        0% { transform: rotate(-30deg); }
        50% { transform: rotate(0deg); }
        100% { transform: rotate(-30deg); }
        }
</style>
</defs><g id="Layer_13"><path class="cls-8" d="m36.81,26.27c2.34-.21,4.69-.39,7.03-.35,1.53.03,3.19.2,4.29,1.27,1.02,1,1.27,2.53,1.47,3.94.29,2.08.58,4.26-.08,6.26-.13.4-.3.79-.34,1.2-.07.82.38,1.58.71,2.33,1.47,3.35.62,7.58-2.04,10.09-1.05-1.25-1.39-3.06-.85-4.6-1.58.55-3.1,1.26-4.53,2.13-.49.3-.97.62-1.31,1.07-.7.94-.64,2.24-.4,3.39s.63,2.31.46,3.47-1.13,2.33-2.3,2.21c-.59-.06-1.11-.44-1.51-.88-1.33-1.43-1.72-3.46-2.22-5.34-.08-.3-.18-.63-.45-.8-.25-.16-.57-.12-.87-.08-.85.14-1.7.35-2.52.62-.55.18-1.12.42-1.49.87-.32.4-.45.91-.55,1.41-.34,1.77-.37,3.61-1.03,5.29s-2.19,3.2-3.98,3.1c-1.08-.06-2.03-.68-2.9-1.33s-1.73-1.35-2.78-1.61-2.33.05-2.81,1.02c-.38.78-.14,1.72-.37,2.56-.46,1.69-2.63,2.31-4.34,1.97-3.12-.62-5.49-3.38-6.44-6.41s-.74-6.31-.28-9.45c.18-1.26.4-2.52.85-3.7.55-1.44,1.42-2.73,2.36-3.93,2.76-3.52,6.25-6.43,10.12-8.65,3.62-2.07,7.63-3.13,11.31-5.03,2.47-1.27,5.01-1.81,7.76-2.06Z"/><path class="cls-2" d="m49.17,36.89c.13-.37.13-.77.12-1.17-.02-1.61-.04-3.22-.06-4.83-.02-1.36-.04-2.77-.61-4-.11-.23-.23-.45-.43-.61-.24-.19-.55-.25-.85-.3-.98-.18-2.07-.34-2.9.21-1,.66-1.18,2.03-1.27,3.23-.14,2-.97,6.73.63,8.35,1.19,1.21,4.78.79,5.37-.88Z"/><path class="cls-2" d="m22.75,35.63c.14.94.14,1.91.44,2.82.28.89.82,1.68,1.18,2.55.52,1.27.62,2.68.28,4-.38,1.52-1.25,2.12-2.33,3.13-1,.93-1.7,2.22-2.24,3.46-1.18,2.71-1.53,5.75-.92,8.64.15.69.38,1.42.96,1.85.48.35,1.1.43,1.7.5.8.1,1.61.19,2.41.29.48.06.98.11,1.44-.03.39-.12.72-.39,1.01-.66.59-.56,1.08-1.22,1.44-1.94.41-.82.65-1.7.9-2.58.23-.86.47-1.71.7-2.57.48-1.75.96-3.58.59-5.36s-1.88-3.47-3.76-3.48c-2.44,0-3.61,2.59-6.02,2.45-2.59-.15-4.61-1.9-6.24-3.67-1.13-1.22-2.19-2.5-3.19-3.82-.47-.62-.94-1.33-.81-2.08.12-.72.75-1.24,1.33-1.69,2.55-1.99,10.09-9.05,11.14-1.81Z"/><path class="cls-5" d="m9.11,46.55c1.07,1.06,2.44,1.75,3.59,2.72,1.51,1.26,2.61,2.95,3.69,4.61.55.84,1.11,1.74,1.16,2.75.03.7-.2,1.4-.63,1.94-.23.28-.51.52-.71.82-.47.71-.44,1.65-.75,2.45-.41,1.04-1.42,1.76-2.5,1.96s-2.19-.07-3.17-.57c-2.58-1.32-4.19-4.17-4.71-7.09-.53-2.92-.11-5.93.45-8.84.13-.67.78-4.42,1.71-4.43.23,0,1.28,3.11,1.87,3.7Z"/><path class="cls-8" d="m56.59,29.04c2.41,1,4.22,3.14,5.3,5.51s1.49,5,1.72,7.6c.01.15.03.31-.04.45-.13.28-.5.32-.81.33-1.53.04-3.06.07-4.59.11-1.24.03-2.51.05-3.68-.36-1.36-.48-2.45-1.5-3.49-2.5-.86-.83-1.73-1.65-2.59-2.48-.47-.45-.95-.91-1.21-1.5-.25-.54-.29-1.16-.28-1.75.07-5.06,5.29-7.24,9.68-5.41Z"/><path class="cls-9" d="m56.12,29.86c-.22-1.24-.39-2.49-.25-3.75s.46-2.36.93-3.47c.97-2.27,2.53-4.22,4.15-6.07.42-.49,1.13.22.71.71-1.46,1.67-2.87,3.43-3.81,5.46-1.03,2.23-1.19,4.47-.76,6.87.11.63-.85.9-.96.27h0Z"/><path class="cls-9" d="m56.82,31.26c.82-1.71,2.03-3.2,3.54-4.36,1.64-1.27,3.48-2.31,5.23-3.41.55-.34,1.05.52.5.86-1.67,1.06-3.42,2.05-5,3.24-1.46,1.1-2.62,2.53-3.4,4.17-.28.58-1.14.07-.86-.5h0Z"/><path class="cls-9" d="m60.87,41.65c.15,3.06-1.93,5.99-4.83,6.91-.61.2-.88-.77-.27-.96,2.5-.79,4.23-3.34,4.1-5.95-.03-.64.97-.64,1,0h0Z"/><path class="cls-9" d="m48.31,50.46c-.62,1.09-.36,2.41-.41,3.61-.05,1.11-.31,2.31-1.22,3.03-.21.17-.5.2-.71,0-.18-.17-.21-.54,0-.71.84-.67.95-1.8.94-2.8-.01-1.24-.1-2.52.54-3.64.32-.56,1.18-.06.86.5h0Z"/><path class="cls-9" d="m40.66,57.74c.19,2.67-1.89,4.64-3.89,6.04-.22.16-.56.04-.68-.18-.15-.25-.04-.53.18-.68,1.71-1.21,3.56-2.88,3.39-5.18-.05-.64.95-.64,1,0h0Z"/><path class="cls-9" d="m38.23,58.14c-1.04,1.77-2.55,3.26-4.35,4.25-.56.31-1.07-.55-.5-.86,1.66-.91,3.04-2.26,4-3.89.33-.56,1.19-.05.86.5h0Z"/><path class="cls-6" d="m24.68,61.99c-.75,1.55-1.5,3.11-2.26,4.66-.35.72-1.72,3.46-2.82,2.37-.46-.45.25-1.16.71-.71-.21,0-.27-.04-.16-.1.04-.04.09-.08.13-.13.11-.1.21-.21.3-.33.19-.23.35-.47.5-.73.31-.53.57-1.09.84-1.64.63-1.31,1.27-2.61,1.9-3.92.28-.58,1.14-.07.86.5h0Z"/><path class="cls-4" d="m22.63,61.68c-1.19,2.35-2.66,4.54-4.37,6.54-.42.49-1.12-.22-.71-.71,1.65-1.94,3.06-4.07,4.21-6.34.29-.57,1.15-.07.86.5h0Z"/><path class="cls-7" d="m59.51,35.75c1.96,1.37,3.93,3.23,4.01,5.62.02.59-.18,1.3-.75,1.45-.26.07-.54,0-.81-.08-3.91-1.18-7.26-3.79-9.93-6.88-1.64-1.9-.32-3.46,1.99-3.14,1.91.26,3.94,1.95,5.48,3.03Z"/><path class="cls-1" d="m21.77,44.79c.22,1.16.2,2.57-.77,3.24-.75.52-1.79.36-2.59-.08s-1.43-1.11-2.16-1.66c-.91-.69-1.96-1.18-2.83-1.92-1.18-1.01-1.95-2.41-2.7-3.77-.16-.29-.32-.6-.29-.93.04-.37.31-.67.58-.93.94-.96,2.07-2.64,3.33-3.18,1.36-.58,2.48.58,3.37,1.49,2.07,2.11,3.51,4.84,4.06,7.74Z"/><path class="cls-1" d="m46.64,31.8c.03,2.24.05,4.56-.91,6.59-.06.12-.13.25-.24.32-.14.08-.31.06-.46.03-1.29-.28-2.38-1.34-2.7-2.63-.14-.58-.13-1.19-.12-1.78.04-1.53.13-3.06.27-4.59.08-.91.19-1.84.62-2.64.78-1.46,2.13-1.88,2.82-.26s.68,3.31.71,4.97Z"/><path class="cls-1" d="m25.57,54.78c-.61,2.4-1.26,4.89-2.85,6.78-.1.11-.2.23-.35.27-.17.05-.34-.02-.5-.1-1.28-.66-2.12-2.11-2.08-3.57.02-.66.2-1.31.39-1.94.48-1.62,1.02-3.23,1.6-4.83.35-.95.73-1.91,1.41-2.65,1.24-1.34,2.78-1.41,3.05.52s-.23,3.73-.68,5.51Z"/><path class="cls-3 flapping" d="m27.66,18.13C24.14,7.63-6.33-12.55,1.19,10.84c7.47,15.89,51.08,34.94,26.48,7.29Z"/></g></svg>