<?xml version="1.0" encoding="UTF-8"?><svg id="Layer_2" xmlns="http://www.w3.org/2000/svg" viewBox="0 0 1862.74 817.53"><defs><style>.cls-1{fill:#dbe5c3;}.cls-2{fill:#ffed23;}.cls-3{fill:#20b167;fill-rule:evenodd;}.cls-4{fill:#f9f7ed;}.cls-5{fill:#bba6ed;}</style></defs><g id="Layer_8"><g id="Layer_6"><path class="cls-3" d="M553.12,454.21s.02-.02.03-.03c-.02.02-.03.03-.03.03Z"/><path class="cls-3" d="M1398.67,454.21s.02-.02.03-.03c-.02.02-.03.03-.03.03Z"/><path class="cls-3" d="M1821.26,451.29c.9,26.29-9.12,45.52-17.57,70.07-18.66,48.24-44.83,108.05-61.94,159.65,11.02-1.67,16.23-21.14,21.11-30.66.47,8.58-.21,20.12,3.49,27.48,4.6-57.65,24.54-112.61,42.68-167.34,6.41-19.95,14.94-40.78,12.29-62.31-.18.15-.14,1.58-.06,3.11Z"/><path class="cls-3" d="M1845.85,343.27c-8.49,6.64-19.81,16.64-33.16,29.35,7.22-11.27,22.69-33.81,24.91-43.4-8.1,5.55-25.68,25.56-35.4,35,9.7-17.62,27.55-44.46,20.39-55.88-14.64,31.99-38.3,64.22-56.72,95.35-21.92,36.34-41.68,75.72-57.34,114.24,13.89-59.12,28.31-118.88,41.67-177.74.02-.18.28-.76-.06-.56.11-.48.23-.96.34-1.44-.22.05-.4.17-.56.33.15-.62.29-1.24.44-1.85-.14.02-.26.07-.39.13.21-.88.41-1.76.62-2.64-.13,0-.25.02-.37.04.11-.46.21-.91.32-1.37-.38-.12-.75.05-1.12.17,1.17-1.91-2.85-.21-3.3-.37-3,.1-3.96,1.62-4.22,4.45-3.44,11.09-5.42,23.07-8.37,34.46-9.78,14.51-19.02,28.96-28.39,44.06-14.95,24.04-41.96,68.44-61.17,98.94,9.94-43.08,42.44-82.91,59.46-122.13-.03.01-.08.02-.13.04.17-.51,1.35-1.82.13-1.26-.09.03-.25.08-.43.13.1-.24.3-.45.35-.69.15-.3.54-.78-.13-.51.28-.53.74-1.11-.21-.67-21.29,32.78-38.48,70.43-57.09,105.49,3.41-41.61,3.63-77.95,2.83-115.02,34.2-57.53,74.47-114.12,119.41-163.95-12.94-2.47-42.97,36.82-53.28,48.72,6.88-13.86,23.97-42.59,27.32-53.66-9.36,7.18-29.17,34.07-38.67,46.47,5.82-14.12,31.71-59.21,24.79-69.18-27.27,52.65-55.21,106.12-80.62,159.78-2.06-47.8-5.01-88.32-8.49-140.91,2.34,56.67,3.74,100.44,2.93,152.66-15.02,31.89-27.65,60.19-40.63,90.5,10.2-47.76,22.18-94.79,29.24-143.53-7.05,38.86-13.74,72.19-23.85,111.46-5.62,23.29-12.71,53.17-23.61,76.07-2.63-6.13-5.43-12.18-8.34-18.15,1.58-4.53,5.99-11.23,6.21-14.7,0,0-.02,0-.03.01.13-.51,1.19-1.86.02-1.23-.08.03-.21.08-.36.14.06-.36.99-1.53.24-1.26.28-.59.58-1.11-.3-.62-3.92,2.32-5,10-7.58,14.03-8.39-16.92-17.7-33.34-27.02-49.76,3.45-19.82,10.54-39.92,14.86-59.08.04-.22.35-.87-.09-.55.06-.5.86-2.1-.23-1.11.17-.63.34-1.26.51-1.89-.18.03-.34.09-.49.18.24-.89.48-1.79.72-2.68-.14-.01-.28,0-.42.04.12-.45.24-.91.37-1.36-.39-.13-.77.04-1.14.15.03-.51.65-1.09-.35-.87,7.9-29.59,11.44-61.35,28.86-87.19-18.37,24.98-21.46,57.78-30.1,87.35-.87.13-1.72.28-1.67.27-.28.05-.55.12-.82.17,8.65-48.55,18.26-90.15,34.77-138.62,14.59-28.36,27.09-51.28,45.46-84.51-15.32,26.13-28.07,47.87-39.51,67.79.85-2.3,1.71-4.62,2.59-6.97-28.83,56.59-62,110.01-84.96,169.55-2-4.28-3.93-8.6-5.78-12.95-2.45,5.54,2.85,10.78,4.53,15.98-5.49,13.82-10.75,28.37-15.43,42.58,1.34-24.88,4.68-49.43,9.99-73.92-8.84,33.66-14.69,67.61-18.17,102.13-5.43,20.11-9.84,42.16-12.79,62.09-6.89,8.18-13.67,16.45-20.34,24.81-6.53-46.49-6.71-93.82-.96-141.34,43.93-66.8,91-117.55,132.97-187.64-40.22,63.36-84.91,106.53-129.75,164.01,6.63-43.01,18.19-87.72,31.36-126.39-12.41,3.04-20.69,37.17-26.88,56.35,1.19-22.14,2.96-50.43,1.43-51.56-1.89.52-9.68,27.82-14.73,49.66.6-15.47-.65-27.53,0-38.51,4.73-20.9,10.02-42.53,23.46-58.74-14.43,15.87-18.92,37.59-24,58.1-.23-8.11-2.85-24.55-7.01-23.8-1.44,24.26-.07,51.3-3.97,76.82-2.49,13.36-5.07,28.04-7.6,42.95-2.29,13.42-4.92,29.59-7.9,47.84-2,12.67-3.11,27.11-11.18,38.2-3.57-16.27-4.69-33.19-4.66-49.5,0-.72-.02-1.44-.03-2.16-3.84,4.14-1.04,10.94-1.69,16.18-8.39-45.34-20.48-94.81,1.47-137.67-21.33,39.6-12.16,81.82-5.5,125.41,3.99,18.17,5.08,38.41,5.51,57.28-6.32,12.03-9.31,25.23-19.73,34.28,3.86-6.74,8.1-13.23,12.73-19.49.51-.7-.14-.43-.47-.08,1.39-1.74.25-.87-.69-.21-.05.04-.09.08-.14.12.61-1,2.97-3.51.45-1.85-.02-.07-.18-.02-.39.08l1.57-2.23c-.65-.04-1.2.44-1.79.68.22-.3.43-.6.64-.89-.09-.01-.18,0-.27,0,.54-.75,1.07-1.5,1.62-2.25-.34-.14-.7-.05-1.05.04.33-.46.66-.93,1-1.38-.37-.26-.84-.13-1.27-.13,1.76-1.26-2.5-.75-2.73-1-7.23-1.55-22.62,32.95-26.15,40.01-8.52-101.97-24.69-193.45-13.29-290.24,3.06.78,6.14,1.57,9.32,2.38-3.26-.94-6.42-1.85-9.57-2.76-11.83,86.76-9.12,157.42-3.25,251.12-17.41,29.8-25.92,63.84-31.17,97.69-1.8,1.86-3.6,3.72-5.4,5.57-8.31-17.74-6.6-39.84-9.11-55.91.78-32.56,19.85-64.99,26.12-96.17.07-.51.9-1.88-.15-1.14-.04.03-.11.06-.19.1,0-.35.67-1.37.21-1.34.67-1.45-.37-.37-.97-.18-10.22,25.34-16.75,53.56-25.95,79.78-1.44-51.03,3.86-94.35,11.09-147.56,8.11-20.85,15.42-42.1,21.41-63.86-6.6,19.7-12.93,41.17-20.96,60.59.14-1.04.29-2.08.43-3.13-7.9,25.8-20.54,49.46-32.12,74.42,16.91-66.03,41.56-127.26,54.79-194.54-18.02,81.39-54.72,149.64-74.69,231.12-1.58-4.29-3.16-8.51-4.84-12.84,2.58-16.76,5.2-33.73,7.76-50.72,5.7-38.02,10.34-70.09,13.93-99.32,11.07-90.84,16.36-178.31,2.67-268.48,17.15,129.43-7.01,247.27-30.61,377.09-.32-44.48,1.16-88.57,4.18-133.16-1.11,12.45-2.27,23.96-3.24,36.11-.09.02-.18.04-.26.05,1.42-1.68-2.82-.43-3.13-.64-3.05-.25-3.99,1.43-4.63,4.14-7.43,19.3-13.73,39.27-20.13,59-.9-1.85-1.8-3.69-2.71-5.54,7.08-55.96,20.44-112.78,35.8-166.02.06-.51.89-1.93-.15-1.13-.04.03-.11.07-.18.11,0-.37.63-1.37.23-1.39.29-.77.26-1.07-.44-.47-19.32,52.03-28.67,109.71-37.14,165.07-4.72-9.55-9.52-19.08-14.35-28.57,6.98-15.34,17.11-32.68,22.9-46.84-.03,0-.06.02-.1.03.15-.51,1.29-1.86.09-1.25-.09.04-.25.09-.42.15.08-.37,1.1-1.58.25-1.25.29-.57.67-1.12-.25-.64-10.01,13.31-15.89,31.32-24.23,46.33-6.68-9.91-3.23-21.57-4.15-33.16-.07-14.5-.34-28.31-.52-43.17-.21,21.93-.56,43.32-1.17,64.9-10.52-20.6-20.86-40.84-30.07-60.2,2.32-7.2,4.77-14.81,7.4-22.96-2.79,7.72-5.43,14.95-7.95,21.79-.42-.88-.84-1.76-1.25-2.64-1.87,1.13-2.26,4.41-1.31,9.55-2.33,6.27-4.56,12.21-6.72,17.89-3.74-4.05-6.4-6.58-7.07-6.48-.42.7,1.64,5.45,4.92,12.13-1.35,3.52-2.67,6.96-3.97,10.32-6.11-6.01-21.38-19.93-26-16.2,7.48,8.02,15.04,16.37,22.58,24.99-16.77,43.09-36.57,89.53-56.98,140.17-.34-62.4,3.85-123.58,2.32-186.17-1.12-21.72-4.24-43.63-11.38-64.45,12.54,40.93,12.06,81.46,10.1,124.33-1.62,39.58-3.08,74.31-5.51,126.69.94,14.11-6.9,27.29-11.15,39.86-9.54-66.29-15.64-120.67-14.46-191.24-2.2,53-.63,94.21,2.55,142.02,1.48,21.24,3.28,42.33,5.66,65.99-5.65,15.36-12.95,36.13-16.59,48.68-7.33-11.87-15.4-25.31-22.49-38.41-.81-27.3-1.11-54.62-.89-81.93.73-40.14-.42-81.6,9.46-120.24.02-.51.71-1.9-.26-1.06-.02.01-.05.03-.07.05,0-.42.41-1.13.2-1.41.24-.82.17-1.06-.5-.39-4.1,5.24-3.31,13.63-5.42,20.03.34-35.25,7.46-61.32,17.07-98.32-5.11,18.11-9.64,34.15-13.71,48.87,1.81-23.67,4.18-47.33,6.65-70.91-.07-.38.5-2.06-.13-1.6.06-.56.12-1.13.18-1.69-.02,0-.03.02-.05.02.09-.86.18-1.71.27-2.57-.08.01-.15.05-.22.07.05-.46.1-.92.15-1.38-.38-.03-.71.16-1.04.36.93-2.28-2.83.19-3.46.12-2.94.62-3.91,2.18-3.77,5.11-7.61,47.8-3.99,98.05-17.33,144.8-2.85,11.97-5.47,24.09-7.82,36.21-5.06,4.18-9.81,8.71-14.23,13.56-.38-6.05-.6-12.16-.74-18.32,6.25-6.33,12.41-12.72,18.37-19.22-2.11-2.57-11.39,3.04-18.54,9.01-.22-21.71.08-44.6-2.36-66.73,1.84-17.7,4.3-35.72,6.27-53.21-.01-.45.49-1.82-.31-1.03.11-.75.17-1.5.27-2.24-.76.56-1.7,1.43-2.13,2.31-1.9,14.77-3.68,29.55-5.36,44.35-1.71-11.69-4.38-23.26-8.15-34.61-4.52,4.23-1.77,12.3-1.65,20.11,1.45,14.55,2.64,30.68,2.95,47.14-4.47-16.74-9.09-35.49-19.38-48.29,1.76,15.75,5.68,33.2,6.08,50.27-5.48-17.85-11.79-35.67-25.11-46.46.5-18.15,1.21-38.15,2.21-61.31-1.6,22.68-2.95,42.32-4.16,60.16-1.86-.89-3.38-1.03-4.55-.39,1.43,1.97,2.82,4.03,4.16,6.16-2.67,40.19-4.77,71.58-6.99,110.64-7.08,10.91-13.96,22.01-20.69,33.16-3.87-21.64-8.75-43.21-15.01-64.43-.15-.17.2-.74-.16-.54,0,0,0,0,0,0,.11-.48.23-.96.34-1.43-.22.05-.4.17-.56.33.14-.62.29-1.24.43-1.85-.14.02-.26.07-.38.13.21-.88.41-1.76.62-2.64-.13,0-.25.02-.37.04.11-.46.21-.91.32-1.37-.38-.12-.75.05-1.12.17.41-1.24.14-.93-1.5-.7-4.68-15.02-10.08-29.73-15.99-43.77-7.09,9.5,5.7,36.39,8.58,53.25-6.92-11.14-15.18-26.04-25.1-33.81,2.43,12.16,9.6,26.84,13.03,39.65-7.43-10.39-23.91-35.83-37.35-32.92,16.03,16.39,30.27,37.89,40.83,59.25-29.48,44.23-56.46,90.8-87.95,140.6,9.94-43.08,42.44-82.91,59.46-122.13-.03.01-.08.02-.13.04.17-.51,1.35-1.82.13-1.26-.09.03-.25.08-.43.13.1-.24.3-.45.35-.69.15-.3.55-.78-.13-.51.29-.53.74-1.11-.21-.67-21.29,32.78-38.48,70.43-57.09,105.5,3.41-41.61,3.63-77.95,2.83-115.02,34.2-57.53,74.47-114.12,119.41-163.95-12.94-2.47-42.97,36.82-53.28,48.72,6.88-13.86,23.97-42.59,27.32-53.66-9.36,7.18-29.17,34.07-38.67,46.47,5.82-14.12,31.71-59.21,24.79-69.18-27.27,52.65-55.21,106.12-80.62,159.78-2.06-47.8-5.01-88.32-8.49-140.91,2.33,56.67,3.73,100.44,2.93,152.66-15.02,31.89-27.65,60.19-40.63,90.5,10.2-47.76,22.17-94.79,29.24-143.53-7.05,38.86-13.74,72.19-23.85,111.46-5.62,23.29-12.71,53.17-23.61,76.07-2.63-6.13-5.43-12.18-8.34-18.15,1.58-4.53,5.99-11.23,6.21-14.7,0,0-.02,0-.03.01.13-.51,1.19-1.86.02-1.23-.08.03-.21.08-.36.14.06-.36.99-1.54.24-1.26.28-.59.58-1.11-.3-.62-3.92,2.32-5,10-7.58,14.03-8.39-16.92-17.7-33.34-27.02-49.76,3.45-19.82,10.54-39.92,14.86-59.08.04-.22.34-.87-.09-.55.06-.5.86-2.1-.23-1.11.17-.63.34-1.26.51-1.89-.18.03-.34.09-.49.18.24-.89.48-1.79.72-2.68-.14-.01-.28,0-.42.04.12-.45.24-.91.37-1.36-.38-.13-.77.04-1.14.15.03-.51.65-1.09-.35-.87,7.9-29.59,11.44-61.35,28.86-87.19-18.37,24.98-21.46,57.78-30.1,87.35-.87.13-1.72.28-1.67.27-.28.05-.55.12-.82.17,8.65-48.55,18.26-90.15,34.77-138.62,14.59-28.36,27.09-51.28,45.46-84.51-15.32,26.13-28.07,47.87-39.51,67.79.85-2.3,1.71-4.62,2.59-6.97-28.83,56.59-62,110.01-84.96,169.55-2-4.28-3.93-8.6-5.78-12.95-2.45,5.54,2.85,10.78,4.53,15.98-5.49,13.82-10.75,28.37-15.43,42.58,1.34-24.88,4.68-49.43,9.99-73.92-8.84,33.66-14.69,67.61-18.17,102.13-5.43,20.11-9.84,42.16-12.79,62.09-6.89,8.18-13.67,16.45-20.34,24.81-6.53-46.49-6.71-93.82-.96-141.34,43.93-66.8,91-117.55,132.97-187.64-40.22,63.36-84.91,106.53-129.75,164.01,6.63-43.01,18.19-87.72,31.36-126.39-12.41,3.04-20.69,37.17-26.88,56.35,1.19-22.14,2.96-50.43,1.43-51.56-1.89.52-9.68,27.82-14.73,49.66.6-15.47-.65-27.53,0-38.51,4.73-20.9,10.02-42.53,23.46-58.74-14.43,15.87-18.92,37.59-24,58.1-.23-8.11-2.85-24.55-7.01-23.8-1.44,24.26-.07,51.3-3.97,76.82-2.49,13.36-5.07,28.04-7.6,42.95-2.29,13.42-4.92,29.59-7.9,47.84-2,12.67-3.11,27.11-11.18,38.2-3.57-16.27-4.69-33.19-4.66-49.5,0-.72-.02-1.44-.03-2.16-3.84,4.14-1.04,10.94-1.69,16.18-8.39-45.34-20.49-94.81,1.47-137.67-21.33,39.6-12.16,81.82-5.5,125.41,3.99,18.17,5.08,38.41,5.51,57.28-6.32,12.03-9.31,25.23-19.73,34.28,3.86-6.74,8.1-13.23,12.73-19.49.51-.7-.14-.43-.47-.08,1.39-1.74.25-.86-.69-.21-.05.04-.09.08-.14.12.61-1,2.97-3.51.45-1.85-.02-.07-.18-.02-.39.08l1.57-2.23c-.65-.04-1.2.44-1.79.68.22-.3.43-.6.64-.89-.09-.01-.18,0-.27,0,.54-.75,1.07-1.5,1.62-2.25-.34-.14-.7-.05-1.05.04.33-.46.66-.93,1-1.38-.37-.26-.84-.13-1.27-.13,1.76-1.26-2.5-.75-2.73-1-7.23-1.55-22.62,32.95-26.15,40.01-8.52-101.97-24.69-193.45-13.29-290.24,3.06.78,6.14,1.57,9.32,2.38-3.26-.94-6.42-1.85-9.57-2.76-11.83,86.76-9.12,157.42-3.25,251.12-17.41,29.79-25.92,63.84-31.17,97.69-1.8,1.86-3.6,3.72-5.4,5.57-8.31-17.74-6.6-39.84-9.11-55.91.78-32.56,19.85-64.99,26.12-96.17.07-.51.9-1.88-.15-1.14-.05.03-.11.06-.19.1,0-.35.67-1.37.21-1.34.67-1.45-.37-.37-.97-.18-10.22,25.34-16.75,53.56-25.95,79.78-1.44-51.03,3.86-94.35,11.09-147.56,8.11-20.85,15.42-42.1,21.41-63.86-6.6,19.7-12.93,41.17-20.96,60.59.14-1.04.29-2.08.43-3.13-7.9,25.8-20.54,49.46-32.12,74.42,16.91-66.03,41.56-127.26,54.79-194.54-18.02,81.39-54.72,149.64-74.69,231.12-1.58-4.29-3.16-8.51-4.84-12.84,2.58-16.76,5.2-33.73,7.76-50.72,5.7-38.02,10.34-70.09,13.93-99.32,11.07-90.84,16.36-178.31,2.67-268.48,17.15,129.43-7.01,247.27-30.61,377.09-.32-44.47,1.16-88.56,4.18-133.16-1.11,12.45-2.27,23.96-3.24,36.11-.09.02-.18.04-.26.05,1.42-1.68-2.82-.43-3.13-.64-3.05-.25-3.99,1.43-4.63,4.14-7.43,19.3-13.73,39.27-20.13,59-.9-1.85-1.8-3.69-2.71-5.54,7.08-55.96,20.44-112.78,35.8-166.02.06-.51.89-1.93-.15-1.13-.04.03-.11.07-.18.11,0-.37.63-1.37.23-1.39.29-.77.26-1.07-.44-.47-19.32,52.03-28.67,109.71-37.14,165.07-4.72-9.55-9.52-19.08-14.35-28.57,6.98-15.34,17.11-32.68,22.9-46.84-.03,0-.06.02-.1.03.15-.51,1.29-1.86.09-1.25-.09.04-.25.09-.42.15.08-.37,1.1-1.58.25-1.25.29-.57.67-1.12-.25-.64-10.01,13.31-15.89,31.32-24.23,46.33-6.68-9.9-3.24-21.57-4.15-33.16-.08-14.5-.34-28.31-.52-43.17-.21,21.93-.56,43.32-1.17,64.9-10.52-20.6-20.86-40.84-30.07-60.2,2.32-7.2,4.77-14.81,7.4-22.96-2.79,7.73-5.43,14.95-7.95,21.79-.42-.88-.84-1.76-1.25-2.64-1.87,1.13-2.26,4.41-1.31,9.55-2.33,6.27-4.56,12.21-6.72,17.89-3.74-4.05-6.4-6.58-7.07-6.48-.42.7,1.64,5.45,4.92,12.13-1.35,3.53-2.67,6.96-3.97,10.32-6.11-6.01-21.38-19.93-26-16.2,7.48,8.02,15.04,16.37,22.58,24.99-16.77,43.09-36.57,89.53-56.98,140.17-.34-62.4,3.85-123.59,2.32-186.17-1.12-21.72-4.24-43.63-11.38-64.45,12.54,40.93,12.06,81.46,10.1,124.33-1.62,39.58-3.07,74.31-5.51,126.69.94,14.11-6.9,27.29-11.15,39.86-9.54-66.29-15.64-120.67-14.46-191.24-2.2,53-.63,94.21,2.55,142.02,1.48,21.24,3.28,42.33,5.66,65.99-5.65,15.36-12.95,36.13-16.59,48.68-7.33-11.87-15.4-25.31-22.49-38.41-.81-27.3-1.11-54.62-.89-81.93.73-40.14-.42-81.6,9.46-120.24.02-.51.71-1.9-.26-1.06-.02.01-.05.03-.07.05,0-.42.41-1.13.2-1.41.24-.82.17-1.06-.5-.39-4.1,5.24-3.31,13.63-5.42,20.03.34-35.25,7.46-61.32,17.07-98.32-5.11,18.11-9.64,34.15-13.71,48.87,1.81-23.67,4.18-47.33,6.65-70.91-.07-.38.5-2.06-.13-1.6.06-.56.12-1.13.18-1.69-.02,0-.03.02-.05.02.09-.86.18-1.71.27-2.57-.08.01-.15.05-.22.07.05-.46.1-.92.15-1.38-.38-.03-.71.16-1.04.36.04-.34.07-.69.11-1.03.02-.16-3.65,1.19-3.57,1.15-2.94.62-3.91,2.18-3.77,5.11-7.61,47.8-3.99,98.05-17.33,144.8-2.85,11.97-5.47,24.09-7.82,36.21-5.06,4.18-9.81,8.71-14.23,13.56-1.96-31.4.25-63.28-3.26-95.26,1.84-17.7,4.3-35.72,6.27-53.21-.01-.45.49-1.82-.31-1.03.04-.45.14-.9.15-1.34.04-.3.08-.6.11-.9-.76.56-1.7,1.43-2.13,2.31-1.9,14.77-3.68,29.55-5.36,44.35-1.71-11.69-4.38-23.26-8.15-34.61-4.52,4.23-1.77,12.3-1.65,20.11,1.45,14.55,2.64,30.68,2.95,47.14-4.47-16.74-9.09-35.49-19.38-48.29,1.76,15.75,5.68,33.2,6.08,50.27-5.48-17.85-11.79-35.67-25.11-46.46.5-18.15,1.21-38.15,2.21-61.3-1.6,22.68-2.95,42.32-4.16,60.16-1.86-.89-3.38-1.03-4.55-.39,1.43,1.97,2.82,4.03,4.16,6.16-6.22,85.44-10.81,175.17-12.73,267.73-6.79-78.47-15.93-164.96-48.33-239.98-7.01,9.14,5.54,36.79,8.8,53.64-6.97-11.28-15.29-26.32-25.32-34.2,2.43,12.16,9.6,26.84,13.03,39.65-7.43-10.39-23.91-35.83-37.35-32.92,50.38,52.51,70.64,130.75,82.6,200.17,1.55,9.07,2.87,17.34,3.99,24.64-9.69,42.21-17.03,84.94-22.03,127.97-5.08,41.71-6.98,83.7-8.16,125.67,0,0,.15-.13.34-.29.05.22-.14.85.09.67-.12.5.35.17.47,0,.01,0,.03-.02.04-.04.02.37-.2,1.3.37.71.06.21-.2.82.2.59,3.42-81.4,10.25-167.39,29.71-248.33,4.13,19.54,7.37,159.54,13.6,90.22.74,3.69,1.78,11.23,3,14.22-3.91-20.37-1.76-35.08-1.36-59.76,2.83-76.09-10.84-116.16,35.32-191.44-7.22,117.12-4.61,234.63,4.41,351.57,0,0,.11-.12.27-.28.05.19-.04.72.12.63-.05.48.36.05.47-.11.06.34-.08,1.21.43.65.06.18-.09.67.24.44-.13.62.76-.23.8-.54-.03-.32-.05-.65-.08-.97-9.48-116.57-11.59-233.98-4.51-350.83,3.65,15.6,12.21,30.06,16.63,44.97-.57,11.02-.82,22.17-.63,33.2.4,20.39,2.41,41.02,5.65,61.01-1.78,36.86-1.22,73.76-.91,110.64,0,0,.13-.13.31-.29.05.2-.1.8.11.65-.1.51.38.09.48-.06,0,0,.02-.01.02-.02.04.39-.14,1.28.42.65.06.19-.14.74.2.55-.16.59.82-.27.86-.56,0-.36-.02-.72-.02-1.07-.68-33.31-1.02-66.7.29-100.02,3.53,20.06,8,40.55,12.26,58.98,3.79,12.94,4.41,25.91,10.54,35.93,2.26-3.72.75-12.33.72-17.67-1.02-14.05-3.17-29.7-5.49-45.47-5.69-37.66-11.92-76.42-12.52-115.61,3.83,6.67,7.71,13.02,11.54,19.07.84,36.14,3.53,72.18,5.1,108.29.32-.05.61-.19.86-.42.03.87.07,1.74.11,2.61.15-.04.3-.11.43-.2.02.43.04.85.06,1.27.55-.15.85-.72,1.25-1.1.03.67.07,1.35.1,2.02.17-.06.31-.16.43-.29,0,.05,0,.1,0,.16.05-.02.09-.06.14-.09-.05.48-.64,1.19.26.64,0,.27-.51,1.04,0,.74-.18.39-.07.59.39.26.03-.01.07-.03.11-.05-.03.26-.28.61-.17.82-.12.39.47-.03.59-.06,0,.26-.35.72-.15.85,1.87.45,1.62-3.4,2.6-4.42.55-1.12,1.4-2.26,1.21-3.55,4.83-19.73,11.77-39.56,19.79-58.31,4.09,5.94,8.8,12.86,11.92,17.54-9.73,34.78-17.56,73.6-20.92,107.97.03.22-.28.97.06.7-.15.48.23.35.45.11.02-.02.06-.04.09-.06-.02.48-.39,1.38.4.72.03.23-.25.75.06.73-.21.48,1-.32,1.05-.58,1.31-10.87,2.65-21.74,4.42-32.55,4.03-24.96,9.45-49.7,16.4-74.02,3.9,5.88,7.02,10.77,8.92,13.77-.13,40.26-18.6,80.49-27.15,117.46,0,.27-.51,1.03,0,.73-.27.62.12.44.48.24-.02.26-.29.59-.16.79-.16.42.44.02.58-.02-.02.26-.34.7-.16.86,9.76-21.82,14.63-49.92,22.69-73.82-1.69,21.92-4.34,45.82-8.29,65.19.02.24-.39,1.02.03.72-.16.44.07.49.42.19.03-.02.06-.04.1-.06-.03.28-.18.59-.14.85-.07.35.46-.08.55-.11.02.23-.3.75-.04.8,1.42.4,1.47-2.49,1.77-3.59,6.09-.05,10.72-33.9,16.27-63.61,2.1,24.3,5.09,52.27,6.72,53.17-.03-3.48-.05-6.97-.08-10.45,4.13,30.64,8.97,70.81,12.41,95.8,1.24,5.85,1.43,15.68,4.43,19.39,5.07-23.12,1.44-41.12.47-71.7-1.92-28.47-6.26-66.52-10.9-98.68,8.48,15.39,14.98,32.46,21.19,48.98-4.62-18.44-13.25-36.16-21.75-52.95-3.8-12.32.91-21.65,5.97-32.76,10.92-25.52,23.85-50.19,38.55-73.74-9.41,87.35.89,180.66-24.3,264.2,0,.27-.52,1.02,0,.73-.28.61.09.46.47.25-.02.22-.34.75-.16.77-.14.26.18.11.59-.01-.03.27-.34.69-.19.88-.14.28.37.05.4.02.19-.08.89-.33.95-.57,6.67-21.38,10.89-43.49,13.59-65.71,7.93-65.16,3.46-131.09,10.51-196.31.43,33.96-.97,72.53-3.09,101.7-1.24,21.42-4.24,41.08-.54,62.06-1.72-26.61,1.15-49.3,4.73-76.45,6.66-49.28,17.19-109.25,33.56-161.64,11.73,22.61,10.99,23.98,8.28,48.96-2.08,37.71-11.57,76.33-15.66,114.14-4.64,28.44-3.25,57.99-11.76,85.6,1.18.19,2.45-.44,3.79-1.81-.62,8.73-1.24,17.46-1.98,26.18.34,0,.65-.11.94-.31-.07.89-.14,1.79-.21,2.68.24-.03.46-.14.66-.28-.04.54-.08,1.08-.12,1.62.64-.12,1.05-.73,1.56-1.1-.06.77-.12,1.54-.18,2.31.61-.15.94-.81,1.4-1.21-.02.24-.03.48-.05.72.31-.01.49-.29.69-.51-.04.56-.09,1.13-.13,1.69.27-.08.47-.27.62-.52-.45,10.3-3.85,41.5-.94,45.67,1.67,1.39,6.63-22.32,7.97-30.03,4.21-23.26,7.48-46.08,10.45-70.17-.07,6.35-.92,14.57.71,18.81,4.72-37.53,15.2-74.57,28.57-110.37,1.7,16.83-1.85,33.79.67,50.68,1.95,17.39,5.8,34.61,12.45,50.83,2.65,12.34-2.46,25-2.91,37.53-.7,7.11-2.09,16.72-2.5,22.47.08.25-.33.81-.08.76-1.34,15.65-3.92,34.34-4.4,48.53.04.21-.23.94.08.69-.13.49.27.3.46.07.02-.02.05-.04.08-.06.01.43-.34,1.37.38.72.04.22-.23.78.11.68,3.89-14.17,2.91-33.42,5.49-49.23,4.79-13.24,9.5-26.52,14.2-39.8.21.23.33.92.61.87.02-.01.05-.09.07-.14.1.09.14.48.29.26.03.06.07.12.13.05.06.14.14.14.21-.02.22.64.63-.61.28-.83.29-.67.04-.98-.26-1.49.08-.34.13-.62,0-.83.18-.63.21-.97-.09-1.38,3.13-8.88,6.23-17.76,9.31-26.65.77,5.07,1.32,10.18,1.77,15.29,0,0,.1-.12.24-.27.06.19,0,.64.12.62-.01.4.28.09.43-.13.09.24-.04.74.21.79.05.03.15-.05.23-.15.05.17-.04.59.25.35-.09.68.72-.22.76-.53-.04-.29-.08-.59-.12-.88.33-.68-.11-1.46-.11-2.19-.38-8.5-4.1-16.98.42-25.03,2.51,14.89,5.37,46.79,11.67,56.84,1.93.76,1.48-19.93,1.05-26.75-.74-19.27-2.01-38.33-3.15-58.04,6.1-17.92,12.12-35.86,18.08-53.83,20.71,59.24,27.5,125.61,28.09,186.69.05.21-.13.82.1.67-.1.52.37.12.5-.04.03.4-.16,1.29.42.67.06.2-.15.73.17.59-.17.57.86-.28.9-.56,0-.37,0-.73,0-1.1.17-65.23-9.43-130.53-28.16-193.03,3.5-10.6,6.99-21.2,10.44-31.82,7.94,13.7,4.58,29.4,7.96,45.8-3.5,3.53-7,7.06-10.52,10.56-.17.23.51.15.55.18-.19.26-.98.72-.22.72-.23.27-.62.41.08.49-.14.21-.7.45-.13.46-.59.45-.03.46.41.47-.17.24-.64.52-.64.71-.38.35,1.52.36,1.62.12,3.53-2.21,6.21-6.23,9.43-9.08,5.38,40.68,14.52,85.66,19.65,123.43,4.16,22.25,3.24,46.48,8.35,59.95,9.86-33.74,1.1-82.68-4.63-123.12-2.85-21.22-10.74-43.62-6.01-65.61,7.91,12.22,16.23,24.04,24.92,35.78-1.45,38.64,3.42,77.04,7.03,115.43.31-.06.58-.22.81-.45.08.85.16,1.7.24,2.56.12-.04.23-.11.33-.18.04.38.08.77.11,1.15.53-.17.78-.72,1.15-1.11.06.63.13,1.26.19,1.89.2-.08.36-.22.48-.4.01.11.02.23.03.34.62-.32.86-1.09,1.28-1.62.07.7.14,1.4.21,2.11.45-.2.56-.74.82-1.13-.06,1.54.93-.73,1.1-.87,1.5-2.3,1.4-4.86.93-7.44.6-.51.31-1.25.26-1.92-1.08-10.77-2.6-21.68-3.64-32.54,5.45-9.19,10.97-18.33,16.6-27.4-4.62,31.95-6.79,65.47-5.07,96.96,5.8-2.88,5.07-15.45,6.45-21.83,1.86-18.67,3.59-37.83,6.1-56.9.56,16.29,3.98,52.14,9.71,63.46-3.02-22.17-3.71-45.05-2.81-67.39,1.88-42.2-.12-39.43,24.96-73.71-2.22,41.28-5.57,82.9-.49,124.02,8.61-4.85,5.27-51.81,7.33-65.16,2.38,25.54,1.85,53.64,8.53,73.85,2.26,6.58,5.69,21.63,11.16,24.15,3.23-3.58.28-17.27.09-23.23-1.96-17.94-3.93-36.12-5.52-58.29,1.34,6.53,2.67,13.06,3.93,19.61,0,0,.07-.1.17-.25.06.2.05.44.14.57.02.31.25.03.38-.18.1.19.02.7.24.62.01.15.11.15.21.01.03.15.04.39.26.14.19.89.93-.71.52-1.23.37-.7-.16-1.41-.19-2.14-1.42-10.79-4.74-21.78-6.59-32.68-.84-16.9-.69-33.78.72-50.58,1.14-14.82,3.58-29.44,6.88-44,1.26-7.36,7.81-12.3,11.84-18.32,6.18,31.9,11.5,57.07,16.15,87.06-2.5,11.74-4.42,23.5-5.62,35.16,4.91-.73,6.84-9.26,8.54-13.74,1.31,8.87,1.65,20.94,2.99,29.43.4-9.49-1.3-22.06-2.21-31.81,3.84-12.73,7.2-25.98,11.15-38.91-.3,14.59-1.37,32.37,3.51,45.75-.3-16.18,1.09-32.53,3.73-48.75,10.91,66.82,10.6-15.92,8.87-41,5.06-19.21,11.06-38.11,17.24-57.28-8.05,38.04-12.36,77.02-9.76,115.91-10.04,23.26-23.26,49.32-31.91,71.11-.05.3-.71,1-.06.75-.33.54-.09.57.38.37-.03.2-.5.76-.18.68-.22.32.09.21.6.11-.09.3-.39.65-.37.92,12.77-19.39,20.82-45.53,31.95-67.16,1.31,17.88-3.18,37.07-4.13,52.98-2.51,34.21-7.98,53.51-6.09,79.93,10.22-23.59,10.83-43.4,17.12-75.68,1.85,11.58,3.7,23.17,5.06,34.82.3-.08.56-.25.77-.48.1.84.22,1.67.33,2.51.1-.04.18-.1.26-.16.04.35.1.7.14,1.05.49-.18.72-.7,1.05-1.09.08.59.18,1.18.26,1.77.24-.1.41-.27.53-.51.02.16.05.33.07.49.58-.32.77-1.04,1.14-1.55.09.65.18,1.3.28,1.94.42-.2.52-.72.75-1.1.04,1.11.8-.7.94-.95,1.4-2.3,1.45-4.78.85-7.32.64-.53.38-1.28.27-1.97-1.79-13.22-4.44-26.57-6.3-39.88,1.06-2.97,2.44-7.25,2.82-8.46,10.03-31.39,20.98-62.44,33.08-93.08,4.38,11.81,8.51,23.72,12.79,35.57-2.15,28.54-1.63,58.27,2.13,86.29,9.11-5.9,4.62-42.71,6.37-55.07,13.68,53.21,17.5,28.12,2.23,83.32.37.08.73-.05,1.08-.2-.22.89-.44,1.79-.66,2.68.36.01.68-.12.99-.32-.16.66-.32,1.31-.48,1.97.72-.05,1.25-.68,1.87-1-.16.66-.32,1.31-.48,1.97.03,0,.06-.02.09-.03-.05.19-.09.38-.14.57.62-.07,1.03-.68,1.53-1.02-.17.7-.61,1.74.54.7-.09.4-.19.8-.28,1.2.72-.21,1.14-1,1.7-1.47-.15.61-.3,1.22-.45,1.83-.18.73,1.33-1.07,1.12-.84.09-.11.18-.22.27-.33-.44,1.17.89-.42.8-.3,2.82-2.8,2.17-7.34,3.41-10.92.06-.02.13-.05.19-.09.01.24-.29.74-.07.83,2.8-.54,2.04-8.68,2.71-11.38,4.37-14.81,10.43-29.06,17.2-42.92.08,13.67-2.05,31.51,2.71,43.7,5.48-15.76,4.94-36.64,8.41-53.73.86-21.47,16.38-38.58,25.24-57.49,6.48,37.03,10.39,74.88,7.9,112.48.34,0,.65-.12.94-.32-.06.89-.12,1.79-.19,2.68.24-.04.45-.14.64-.27-.04.53-.06,1.06-.11,1.59.63-.12,1.03-.73,1.52-1.1-.05.76-.09,1.52-.14,2.28.6-.15.91-.8,1.36-1.19-.01.23-.02.46-.03.68.32-.02.49-.3.69-.52-.04.57-.06,1.15-.1,1.72.63-.24.89-1,1.33-1.48-.08.94-.14,1.77.76.4.09.33.84-.82.75-.68,3.65-11.74,1.1-26.57,1.56-39.1,3.32-16.73,7.34-33.24,12.15-49.9-10.89,65.7-1.62,132.09,5.42,197.66.31-.06.57-.22.8-.45.08.85.17,1.7.24,2.55.12-.04.23-.11.33-.18.04.38.08.77.11,1.15.53-.17.78-.72,1.15-1.11.06.63.13,1.26.2,1.88.2-.08.36-.22.48-.4.01.11.02.23.03.34.62-.32.86-1.08,1.28-1.61.07.7.14,1.4.21,2.1.45-.2.56-.74.81-1.13-.06,1.53.94-.73,1.1-.87.46-1.1,1.32-2.22,1.15-3.44.4-1.25-.2-2.69-.22-4,.61-.51.32-1.25.26-1.92-12.6-91.03-17.01-161.84,8.3-251.73,14.51-34.63,36.04-73.68,59.68-105.86,8.11,30,13.74,61.81,18.21,90.93-10.45,47.62-16.36,96.63-35.94,141.49,5.31.87,11.35-9.63,14.11-15.19-5.22,42.26-7.16,84.8-8.36,127.33,0,0,.15-.13.34-.29.04.22-.14.84.09.67-.12.5.35.17.47,0,.01,0,.03-.02.04-.04.03.37-.2,1.3.37.71.06.21-.2.82.2.59-.17.54.87-.31.91-.58.02-.42-.02-.86.06-1.27.32-21.58,1.02-43.13,2.43-64.66,3.19-25.84.96-53.54,10.44-77.93.47,8.58-.21,20.12,3.49,27.48,2.22-28.41,8.39-56.78,16.17-84.36,2.14,45.01,6.21,88.62,9.82,43.21.74,3.69,1.78,11.23,3,14.22-5.05-29.91,0-63.16-.82-96.7,6.15-18.89,12.9-38.68,19.14-57.72,5.07-15.42,9.72-31.68,7.67-48.31.97,35.51-14.69,62.81-26.72,96.37.14-19.07.18-39.52.1-60.44,8.2-29.32,18.47-58.44,34.61-84.41-7.22,117.12-4.61,234.63,4.41,351.57,0,0,.12-.12.27-.28.05.19-.04.72.12.63-.06.48.35.05.47-.11.06.34-.08,1.21.43.65.06.18-.09.67.24.44-.13.62.76-.23.8-.54-.03-.32-.05-.65-.08-.97-9.48-116.57-11.59-233.98-4.51-350.83,3.65,15.6,12.21,30.06,16.63,44.97-.57,11.02-.82,22.17-.63,33.2.4,20.39,2.41,41.02,5.65,61.01-1.78,36.86-1.22,73.76-.91,110.64,0,0,.13-.13.31-.29.05.21-.1.8.11.65-.1.51.38.09.48-.06,0,0,.02-.01.02-.02.04.39-.14,1.28.42.65.06.19-.14.74.2.55-.16.59.82-.27.86-.56,0-.36-.02-.72-.02-1.07-.68-33.32-1.02-66.7.29-100.02,3.53,20.06,8,40.55,12.26,58.98,3.79,12.94,4.41,25.91,10.54,35.93,2.26-3.72.75-12.33.72-17.67-1.02-14.05-3.17-29.7-5.49-45.47-5.69-37.66-11.92-76.42-12.52-115.61,3.83,6.67,7.71,13.02,11.54,19.07.84,36.14,3.53,72.18,5.1,108.29.32-.05.61-.19.86-.42.03.87.07,1.74.11,2.61.16-.04.3-.11.43-.2.02.43.04.85.06,1.27.55-.15.85-.72,1.25-1.1.03.67.07,1.35.1,2.02.17-.06.31-.16.43-.29,0,.05,0,.1,0,.16.05-.02.09-.06.14-.09-.05.48-.64,1.19.26.64,0,.27-.51,1.04,0,.74-.18.39-.07.59.39.26.03-.01.07-.03.11-.05-.03.26-.28.61-.17.82-.12.39.47-.03.59-.06,0,.26-.35.72-.15.85,1.87.45,1.62-3.4,2.6-4.42.55-1.12,1.4-2.26,1.21-3.55,4.83-19.73,11.77-39.56,19.79-58.31,4.09,5.94,8.8,12.86,11.92,17.54-9.73,34.78-17.56,73.6-20.92,107.97.03.22-.28.97.06.7-.15.48.23.35.45.11.02-.02.06-.04.09-.06-.02.48-.39,1.38.4.72.03.23-.25.75.06.73-.21.48,1-.32,1.05-.58,1.31-10.87,2.65-21.74,4.42-32.55,4.03-24.96,9.45-49.7,16.4-74.02,3.9,5.88,7.02,10.77,8.92,13.77-.13,40.26-18.6,80.49-27.15,117.46,0,.27-.51,1.03,0,.73-.27.62.12.44.48.24-.02.26-.29.59-.16.79-.16.42.44.02.58-.02-.02.26-.34.7-.16.86,9.76-21.82,14.63-49.92,22.69-73.82-1.69,21.92-4.34,45.82-8.29,65.19.02.24-.39,1.02.03.72-.17.45.1.48.42.19.03-.02.06-.04.1-.06-.03.28-.18.59-.14.85-.06.35.46-.08.55-.11.02.23-.3.75-.05.8,1.42.4,1.47-2.49,1.77-3.59,6.09-.05,10.72-33.9,16.27-63.61,2.1,24.3,5.09,52.27,6.72,53.17-.03-3.48-.05-6.97-.08-10.45,4.13,30.64,8.97,70.81,12.41,95.8,1.24,5.85,1.43,15.68,4.43,19.39,5.07-23.12,1.44-41.12.47-71.7-1.92-28.47-6.26-66.52-10.9-98.68,8.48,15.39,14.97,32.46,21.19,48.98-4.62-18.44-13.25-36.16-21.75-52.95-3.8-12.32.91-21.65,5.97-32.76,10.92-25.52,23.85-50.19,38.55-73.74-9.41,87.35.89,180.66-24.3,264.2,0,.27-.51,1.02,0,.73-.28.61.09.46.47.25-.02.22-.34.75-.16.77-.14.26.18.11.59-.01-.03.27-.34.7-.19.88-.14.28.37.05.4.02.19-.08.88-.33.95-.57,6.67-21.38,10.89-43.49,13.59-65.71,7.93-65.16,3.45-131.09,10.51-196.31.43,33.96-.97,72.53-3.09,101.7-1.23,21.42-4.24,41.08-.54,62.06-1.72-26.61,1.15-49.3,4.73-76.45,6.66-49.28,17.19-109.25,33.56-161.64,11.73,22.61,10.99,23.98,8.28,48.96-2.08,37.71-11.57,76.33-15.66,114.14-4.64,28.44-3.25,57.99-11.76,85.6,1.18.19,2.45-.44,3.79-1.81-.62,8.73-1.25,17.46-1.98,26.18.34,0,.65-.11.94-.31-.08.89-.14,1.79-.21,2.68.24-.03.46-.14.66-.28-.04.54-.08,1.08-.12,1.62.64-.12,1.05-.73,1.56-1.1-.06.77-.12,1.54-.18,2.31.61-.15.94-.81,1.4-1.21-.02.24-.03.48-.05.72.31-.01.49-.29.69-.51-.04.56-.09,1.13-.13,1.69.27-.08.47-.27.62-.52-.45,10.3-3.85,41.5-.94,45.67,1.67,1.39,6.63-22.32,7.97-30.03,4.21-23.26,7.48-46.09,10.45-70.17-.07,6.35-.92,14.58.71,18.81,4.72-37.53,15.2-74.57,28.57-110.37,1.7,16.83-1.85,33.79.67,50.68,1.95,17.39,5.8,34.61,12.45,50.83,2.65,12.34-2.46,25-2.91,37.53-.7,7.11-2.09,16.72-2.5,22.47.08.25-.33.81-.08.76-1.34,15.65-3.92,34.34-4.4,48.53.04.21-.23.94.08.69-.13.49.27.3.46.07.02-.02.05-.04.08-.06.02.43-.34,1.37.38.72.04.22-.23.78.11.68,3.89-14.17,2.91-33.42,5.49-49.23,4.79-13.24,9.5-26.52,14.2-39.8.21.23.33.92.61.87.02-.01.05-.09.07-.14.1.09.14.48.29.26.03.06.07.12.13.05.06.14.14.14.21-.02.22.64.63-.61.28-.83.29-.67.04-.98-.26-1.49.08-.34.13-.62,0-.83.19-.62.21-.98-.09-1.38,3.12-8.88,6.23-17.76,9.31-26.65.77,5.07,1.32,10.18,1.77,15.29,0,0,.1-.12.24-.27.06.19,0,.64.12.62-.01.39.28.1.43-.13.09.24-.04.74.21.79.05.03.15-.05.23-.15.05.17-.04.58.25.35-.1.64.73-.2.76-.53-.04-.29-.08-.59-.12-.88.33-.68-.11-1.46-.11-2.19-.38-8.5-4.1-16.97.42-25.03,2.51,14.89,5.37,46.79,11.67,56.84,1.93.76,1.48-19.93,1.05-26.75-.74-19.27-2.01-38.33-3.15-58.04,6.1-17.92,12.12-35.86,18.08-53.82,20.71,59.24,27.5,125.61,28.09,186.69.05.21-.13.82.1.67-.1.56.37.09.5-.04.03.4-.16,1.29.42.67.06.2-.15.73.17.59-.17.57.86-.28.9-.56,0-.37,0-.73,0-1.1.18-65.23-9.43-130.53-28.16-193.03,3.5-10.6,6.99-21.2,10.44-31.82,7.94,13.7,4.58,29.4,7.96,45.8-3.5,3.54-7,7.06-10.53,10.57-.17.23.51.15.55.18-.19.26-.98.72-.22.72-.23.27-.62.41.08.49-.13.22-.7.45-.12.46-.59.45-.03.46.41.47-.17.24-.64.52-.64.71-.38.35,1.51.36,1.62.12,3.53-2.21,6.21-6.23,9.43-9.08,5.38,40.68,14.52,85.66,19.65,123.43,4.17,22.25,3.24,46.48,8.35,59.95,9.86-33.74,1.1-82.68-4.63-123.12-2.85-21.22-10.74-43.62-6.01-65.61,7.91,12.22,16.23,24.04,24.92,35.78-1.45,38.64,3.42,77.04,7.03,115.43.31-.06.58-.22.81-.45.08.85.16,1.7.24,2.56.12-.04.23-.11.33-.18.04.38.08.77.11,1.15.53-.17.78-.72,1.15-1.11.06.63.13,1.26.19,1.89.2-.08.36-.22.48-.4.01.11.02.23.03.34.62-.32.86-1.09,1.28-1.62.07.7.14,1.4.21,2.11.45-.2.56-.74.82-1.13-.06,1.54.93-.73,1.1-.87,1.5-2.3,1.4-4.86.93-7.44.6-.51.31-1.25.26-1.92-1.08-10.77-2.6-21.68-3.64-32.54,5.45-9.19,10.97-18.33,16.6-27.4-4.62,31.95-6.79,65.47-5.07,96.96,5.8-2.88,5.07-15.45,6.45-21.83,1.86-18.67,3.59-37.83,6.1-56.9.56,16.29,3.98,52.14,9.71,63.46-3.02-22.17-3.71-45.05-2.81-67.39,1.88-42.2-.12-39.44,24.96-73.71-2.23,41.28-5.57,82.9-.49,124.02,8.61-4.85,5.27-51.81,7.33-65.16,2.38,25.54,1.85,53.64,8.53,73.85,2.26,6.57,5.69,21.63,11.16,24.15,3.23-3.58.28-17.27.09-23.23-1.96-17.94-3.93-36.12-5.52-58.29,1.34,6.53,2.67,13.06,3.93,19.61,0,0,.07-.1.17-.25.06.2.05.43.14.57.02.31.25.03.38-.18.1.19.02.7.24.62.01.15.11.15.21.01.03.15.04.39.26.14.19.89.93-.71.52-1.23.37-.7-.16-1.41-.19-2.14-1.42-10.79-4.74-21.78-6.59-32.68-.84-16.9-.69-33.78.72-50.57,1.14-14.82,3.58-29.44,6.88-44,1.25-7.36,7.8-12.3,11.84-18.32,6.18,31.9,11.5,57.07,16.15,87.06-2.5,11.74-4.42,23.5-5.62,35.16,4.91-.73,6.84-9.26,8.54-13.74,1.31,8.87,1.65,20.94,2.99,29.43.4-9.49-1.3-22.06-2.21-31.81,3.85-12.73,7.2-25.98,11.15-38.91-.3,14.59-1.37,32.37,3.51,45.75-.31-16.18,1.09-32.53,3.73-48.75,10.91,66.82,10.6-15.92,8.87-41,5.06-19.21,11.06-38.11,17.24-57.28-8.05,38.04-12.36,77.02-9.76,115.91-10.04,23.26-23.26,49.32-31.91,71.11-.05.3-.71,1-.06.75-.33.54-.09.57.38.37-.03.2-.5.76-.18.68-.22.32.09.21.6.11-.09.3-.39.65-.37.92,12.77-19.39,20.82-45.53,31.95-67.16,1.31,17.88-3.18,37.07-4.13,52.98-2.5,34.21-7.98,53.51-6.09,79.93,10.22-23.59,10.83-43.4,17.12-75.68,1.85,11.58,3.7,23.17,5.06,34.82.3-.08.55-.25.77-.48.1.84.22,1.67.33,2.51.1-.04.18-.1.26-.16.04.35.1.7.14,1.05.49-.18.72-.7,1.05-1.09.08.59.18,1.18.26,1.77.24-.1.41-.27.53-.51.02.16.05.33.07.49.58-.32.77-1.04,1.14-1.55.09.65.19,1.3.28,1.94.42-.2.52-.72.75-1.1.04,1.11.8-.7.94-.95,1.4-2.3,1.45-4.78.85-7.32.64-.53.38-1.28.27-1.97-1.79-13.22-4.44-26.57-6.3-39.88,1.06-2.97,2.44-7.25,2.82-8.46,10.03-31.39,20.98-62.44,33.08-93.08,4.38,11.81,8.51,23.72,12.79,35.57-2.15,28.54-1.63,58.27,2.13,86.29,9.11-5.9,4.62-42.71,6.37-55.07,13.68,53.21,17.5,28.12,2.23,83.32.37.08.73-.05,1.08-.2-.22.89-.44,1.79-.66,2.68.36.01.68-.12.99-.32-.16.66-.32,1.31-.48,1.97.72-.05,1.25-.68,1.87-1-.16.66-.32,1.31-.48,1.97.03,0,.06-.02.09-.03-.05.19-.09.38-.14.57.62-.07,1.03-.68,1.53-1.02-.17.7-.61,1.74.54.7-.09.4-.19.8-.28,1.2.72-.21,1.14-1,1.7-1.47-.15.61-.3,1.22-.45,1.83-.18.73,1.33-1.07,1.12-.84.09-.11.18-.22.27-.33-.44,1.16.89-.42.8-.3,2.82-2.8,2.17-7.34,3.41-10.92.06-.02.13-.05.2-.09.01.24-.3.74-.07.83,2.8-.54,2.04-8.68,2.71-11.38,4.37-14.81,10.43-29.06,17.2-42.92-.48,12.7-.72,26.4,1.03,38.69,3.55,22.21,8.56-45.41,10.09-48.72.86-21.47,16.38-38.58,25.24-57.49,6.48,37.03,10.39,74.88,7.9,112.48.34,0,.65-.12.94-.32-.06.89-.12,1.79-.19,2.68.24-.04.45-.14.64-.27-.04.53-.06,1.06-.1,1.59.63-.12,1.03-.73,1.52-1.1-.05.76-.09,1.52-.14,2.28.6-.15.91-.8,1.36-1.19,0,.23-.02.46-.03.68.32-.02.49-.3.69-.52-.04.57-.06,1.15-.1,1.72.63-.24.89-1,1.33-1.48-.09.94-.13,1.77.76.4.09.33.84-.82.75-.68,3.65-11.74,1.1-26.56,1.56-39.1,3.32-16.73,7.34-33.24,12.15-49.9-10.89,65.7-1.62,132.1,5.42,197.66.31-.06.57-.22.8-.45.08.85.17,1.7.24,2.55.12-.04.23-.11.33-.18.04.38.08.77.11,1.15.53-.17.78-.72,1.14-1.11.06.63.13,1.26.2,1.88.2-.08.36-.22.48-.4.01.11.02.23.03.34.62-.32.86-1.08,1.28-1.61.07.7.14,1.4.21,2.1.45-.2.56-.74.81-1.13-.06,1.54.94-.73,1.1-.87.46-1.1,1.32-2.22,1.15-3.44.4-1.25-.2-2.69-.22-4,.6-.51.32-1.25.26-1.92-12.6-91.1-17.01-161.79,8.3-251.73,17.87-42.69,45.04-89.29,75.63-126.65,26.29-33.19,58.78-61.18,87.31-92.24-2.57-1.97-8.38,1.1-16.89,7.71ZM1426.44,614.61c0-.13-.01-.27-.01-.4.03.13.05.27.01.4ZM1439.35,408.87c.07,1.81.15,3.62.23,5.41-3.33,3.88-6.67,7.76-10.02,11.63,3.14-5.68,6.41-11.36,9.78-17.04ZM1583.83,582.68c.3-21.83,2.31-43.71,5.42-65.54,6.8,19.93,11.77,40.78,12.28,61.91-6.37,9.77-12.34,19.83-17.14,30.54-.51-8.94-.69-17.91-.56-26.9ZM1516.46,568.63c.9-12.2,2.35-24.36,4.41-36.42-1.56,12.27-3.02,24.45-4.41,36.42ZM1571.69,475.82c-13.77,30.35-27.54,60.69-41.31,91.04,4.78-43.86,9.85-98.52,15.16-139.45,9.03,15.97,18.01,31.96,26.14,48.41ZM1376.24,637.18c-6.24,9.91-12.28,19.94-18.3,29.97-1.89-19.97-3.41-39.98-3.18-60.02,1.63,2.14,5.38,6.92,5.81,6.97.07-.57-4.8-7-5.79-8.35.37-20.81,2.24-41.59,6.6-61.95,6.06,93.09,12.5,76.25,12.09,5.8-.2-31.28-8.24-50.91,18.9-76.12-9.11,27.06-19.5,64.85-12.07,91.05,2.78-2.96,3.01-11.77,4.29-16.29,3.63-21.92,12.91-54.94,23.93-79.59-6.35,56.16-24.48,111.81-32.28,168.53ZM1395.84,591.59c4.28-31.28,10.05-63.44,14.94-94.87,2.85,27.71,6.67,54.88,4,82.86-7.27,10.24-14.41,20.57-21.33,31.05.74-6.35,1.54-12.69,2.4-19.04ZM1410.27,464.59c.18-.41.37-.82.56-1.23-.15.86-.31,1.72-.47,2.58-.03-.45-.06-.9-.09-1.35ZM1606.56,590.59c-2.28,8.33-5.71,25.41-2.94,31.02.59-3.39,1.39-6.78,2.34-10.16.45,4.28,1.6,8.43,2.7,12.57.04-.02.07-.05.1-.08.09.31.16.72.42.15.1.15.1.76.33.52.02.07.06.15.12.09.03.08.13,0,.21-.12.19.98.82-.55.4-.96.37-.61-.02-1.02-.16-1.59.1-.26.04-.43-.04-.65-.46-4.7-3.02-9.5-2.71-14.53,3.68-11.58,8.96-22.83,14.5-33.86-3.09,20.61-5.71,39.86-7.3,57.08-7.51,14.13-14.59,28.52-20.35,43.46-.08-.51-.17-1.02-.25-1.53.16.16.3.25.41.26-4.36-16.98-7.72-34.13-9.14-51.68,7.97-10.01,12.14-18.3,21.73-32.02-.13.68-.24,1.36-.36,2.04ZM1415.74,525.55c-1.1-15.88-5.29-31.93-2.11-47.72,1.11,15.23,1.87,31.25,2.11,47.72ZM1325.16,540.54c4.99-30.87,13.46-61.52,28.61-89.03,1.35,18.53,2.82,36.1,4.36,54.09-10.9,11.74-21.87,23.4-32.97,34.94ZM1321.31,549.71c-.27,1.92-.52,3.85-.77,5.78-.62-1.02-1.23-2.05-1.85-3.07.87-.9,1.74-1.8,2.62-2.71ZM1584.19,503.52c.4,1,.78,2.01,1.17,3.01-5.88,26.99-11.33,57.78-13.81,87.66-3.83-11.01-7.83-21.96-11.9-32.88,7.11-18.21,16-39.18,24.55-57.78ZM1665.38,488.71c21.05-39.58,43.15-78.52,67.85-115.85-4.13,17.63-8.26,35.25-12.39,52.87-.05,0-.1,0-.15,0,1.41-1.47-2.67-.73-2.96-.94-3.49-.53-3.45.56-4.58,3.47-19.36,44.06-38.5,89.14-61,132.03-1.57-6.62-3.24-13.21-4.98-19.8-.25.09-.46.25-.63.45-.09-.36-.19-.72-.28-1.07-.04-.16-3.32,2.46-3.24,2.4-.95.92-2.27,1.63-2.94,2.76.24.92.47,1.84.7,2.75-.29,7.76,4,16.53,5.06,24.65-4.8,9.15-9.74,18.22-14.73,27.27,3.44-20.71,7.34-43.44,10.32-65.09,7.9-15.37,15.86-30.69,23.95-45.91ZM1604.61,460.61c11.69-23.17,23.17-44.69,36.59-67.84-1.22,32.7-3.86,69.83-8.68,106.94-2.1,31.44-10.02,50.88-28.84,76.04-1.08-21.9-6.16-43.68-13.61-64.3,2.49-17.93,4.89-34.97,14.54-50.84ZM1587.68,495.89c.04-.08.07-.16.11-.24-.46,2.04-.93,4.09-1.39,6.16-.22-.55-.45-1.1-.67-1.65.64-1.41,1.29-2.83,1.95-4.27ZM1525.62,365.78c17.57-49.58,39.21-97.06,63.06-143.79-23.31,64.02-36.56,122.35-49.46,188.6-6.09-10.83-12.09-21.72-17.75-32.8,1.36-4.12,2.7-8.14,4.15-12.01ZM1499.23,455.12c6.02-24.88,12.93-49.6,21.11-73.89,5.62,11.25,11.76,22.26,17.91,33.23-1.95,7.73-3.87,15.46-5.76,23.21-11.91,12.41-23.6,25.02-35.03,37.88-.51-7.03-.32-13.67,1.77-20.43ZM1453.18,528.4c-9.61,12.13-18.98,24.45-28.13,36.95-1.09-31.37-3.58-62.69-7.4-93.84-5.9-23.79,7.73-35.79,22.18-52.06,1.72,36.71,6.45,73.65,13.35,108.96ZM1436.85,316.48c.93-5.59,1.9-11.17,2.89-16.75-.99,28.65-1.62,58.08-1.06,86.59-5.47,7.83-10.7,15.84-15.61,23.93,4.28-31.41,8.59-62.71,13.78-93.77ZM1409.35,434.71c-.22.43-.45.86-.66,1.29-.14-3.16-.27-6.31-.39-9.47.36,2.68.71,5.41,1.06,8.18ZM1088.22,473.11c-.51,9.68-1.06,19.52-1.63,29.46-1.02-6.43-2-12.64-2.94-18.67,1.5-3.49,3.02-7.09,4.57-10.79ZM1251.07,355.65c-.56,10.82-1.23,21.51-1.72,32.32-4.77-11.06-9.72-21.87-14.96-32.9,6.57-21.1,13.66-42.04,21.15-62.85-1.75,21.27-3.13,42.32-4.47,63.42ZM1232.24,385.23c16.64,28.23,18.66,25.2,12.1,57.74-1.67-3.36-3.35-6.71-5.05-10.06-2.72,5.1,2.69,9.87,4.32,14.66-2.24,14.34-4.29,28.39-6.11,42.6-4.56,8.83-9.18,17.89-13.79,27.14-9.82-21.35-7.28-44.47-7-67.37-.26-24.95,2.46-48.67,10.87-72.27,1.58,2.52,3.14,5.04,4.66,7.57ZM1247.4,518.49c1.43,24.12,1.93,47.29-4.03,70.7-5.61-23.28,2.39-45.07,4.03-70.7ZM1217.81,528.33c-.4-7.86-.71-15.72-.94-23.59,1.82,5.2,3.58,10.42,5.29,15.67-1.43,2.89-2.87,5.8-4.29,8.73-.02-.27-.03-.54-.05-.81ZM1234.95,659.94c2.65-17.32,5.31-34.64,7.96-51.95-.88,15.04-6.22,32.46-4.54,46.62,5.53-6.11,7.53-18.47,10.37-27.01,5.24,15.34-3.55,29.08-7.98,43.57-2.04-3.69-4-7.41-5.81-11.23ZM1250.02,622.43c1.11-4.47,2.19-9.08,3.1-13.64.62,10.24,4.09,19.34-.61,28.53-.79-4.97-1.61-9.93-2.48-14.88ZM1262.38,550.54c1.78-14.31,3.45-29.4,5.12-44.07,4.92,14.32,9.85,28.63,14.77,42.95-5.58,16.86-11.25,33.7-16.96,50.52-.93-15.45-1.92-32.11-2.93-49.4ZM1234.27,664.32c1.66,3.5,3.41,6.96,5.25,10.36-3.57,10.17-7.2,20.32-10.88,30.45,1.38-13.67,3.52-27.24,5.63-40.81ZM1223.05,539.64c-1.38,5.27-2.52,10.63-3.41,16.01-1.34-5.78,1.32-10.76,3.41-16.01ZM1237.48,617.15c.75-10.65,1.64-21.51,2.59-32.29,4.67,14.17-2.09,28.67-3.34,43.06.2-3.6.44-7.03.75-10.77ZM1219.49,599.77c-.65-7.51-.55-15.08-.07-22.58.56,6.02,1.12,12.04,1.62,18.07,0,0,.11-.12.25-.28.06.19-.02.67.12.62-.03.43.3.08.45-.13.09.24-.06.78.19.81.06.02.15-.07.24-.16.05.17-.06.62.25.37-.11.64.73-.2.77-.53-.03-.31-.06-.61-.1-.92.27-.7-.1-1.5-.09-2.25-.69-9-1.93-18.08-2.63-27.12,1.19-10.28,3.6-20.39,6.31-30.35,6.43,14.49,3.06,29.99,2.52,45.05-.8,22.47-1.16,45.42.67,67.54-5.23-15.4-8.39-32.02-10.51-48.14ZM1215.69,421.08c-1.16,23.13-1.59,46.3-1.19,69.46-3.02-8.28-6.18-16.51-9.5-24.68,3.32-14.99,6.89-29.92,10.69-44.79ZM1228.1,531.29s0,0,0,0c1.75-5.74,4.07-11.28,6.48-16.77-1.1,10.02-2.05,19.76-2.84,29.14-1.18-4.13-2.39-8.25-3.65-12.37ZM1284.4,542.98c-4.71-15.34-10.01-30.48-15.86-45.41,1.37-10.28,1.85-20.77,4.89-30.74,7.26,16.32,14.32,32.07,21.02,45.56-3.33,10.21-6.68,20.41-10.05,30.6ZM1258.38,472.95c-1.73-7.96-.17-15.31,4.02-22.24-1.47,7.41-2.82,14.84-4.02,22.24ZM1301.61,365.93c5.52-12.62,10.85-25.37,15.88-38.28-6.85,40.85-12.51,74.57-15.99,112.33-3.68,21.18,1.3,46.31-5.67,68.13-6.3-14.3-13.65-33.91-19.81-51.07.73-3.76,2.92-8.84,2.98-11.95.05-.51.84-1.91-.19-1.11-.04.03-.09.06-.15.09,0-.38.58-1.3.22-1.39.07-.24.13-.49.2-.73-3.58,1.15-3.07,6.47-4.39,9.56,2.61-16.84,6.09-33.06,9.5-47.14,5.92-12.73,11.76-25.53,17.41-38.45ZM1262.39,442.39c-1.66,3.18-3.35,6.42-5.07,9.71-.33-5.53,1.29-10.92,1.91-16.44,1.07,2.26,2.12,4.51,3.15,6.73ZM1219.22,372.84c-6.11,21.05-11.7,42.25-16.8,63.58.83-31.59,1.2-62.67,1.3-94.19,5.6,7.78,11.02,15.63,16.21,23.52-.24,2.36-.48,4.73-.71,7.09ZM1169.16,237.66c3.86,14.67,9.4,26.45,18.91,46.56-8.03-10.14-17.64-21.66-24.48-29.24,1.77-5.53,3.62-11.28,5.57-17.33ZM1176.84,291.6c-6.72-7.75-12.95-14.46-18.56-20.04,1-3.13,2.02-6.32,3.07-9.58,4.39,8.76,10.29,19.89,15.49,29.63ZM1148.72,301.46c2.13-6.68,4.28-13.39,6.49-20.3,13.35,15.4,26.59,31.63,39.15,48.34-11.38,25.01-21.73,50.52-29.96,76.75-1.92,1.51-6.27,16.84-9.31,29.06-2.73-22.49-7.69-36.44-14.08-36.84,3.72,27,7.53,57.52,6.2,86.18-19.13,29.97-35.35,61.81-48.28,94.93-1.14-7.52-2.32-15.07-3.53-22.64,5.14-18.73,11.78-38.82,16.2-56.89.06-.51.86-1.89-.18-1.13-.04.02-.1.06-.16.09,0-.36.62-1.33.21-1.36.08-.27.16-.54.23-.81-.64.43-1.9.87-2.31,1.58-4.73,16.29-9.46,32.57-14.18,48.86-.49-61.53-4.08-50.85,21.32-105.38-.02.01-.07.03-.1.04.14-.51,1.27-1.91.09-1.26-.1.04-.25.1-.42.17.07-.37,1.09-1.63.27-1.3.3-.59.66-1.16-.27-.62-9.33,12.45-14.08,29.6-20.98,43.96.01-8.94.04-17.88.07-26.82,7.5-19.96,16.25-40.85,25.43-60.43,10.06-23.31,21.55-48.61,28.77-71.83.11-.51.95-1.81-.1-1.18-.06.03-.15.06-.25.1.02-.34.79-1.41.21-1.28.7-1.32-.29-.48-.92-.31-10.32,22.11-18.05,46.96-28.91,69.42,12.61-36.96,20.9-62.89,29.3-89.12ZM1040,505.94c5.63,8.33,10.87,15.91,15.58,22.73-1.63,6.07-2.35,10.09-1.95,11.54-5.21,13.74-9.97,27.68-14.2,41.76-1.94-27.87-3.52-55.77-4.54-83.69,1.73,2.61,3.45,5.18,5.12,7.66ZM1018.01,386.41c2.44-23.21,5.67-45.35,9.8-68,.07,42.07-9.14,83.13-13.11,124.89.18-19,1.47-38.02,3.31-56.89ZM935.54,537.4c-.02-.35-.13-.71,0-1.05,0,.35,0,.7,0,1.05ZM977.28,363.13c-3.23,2.97-6.61,6.13-10.13,9.49,3.01-4.53,6.2-9.4,9.24-14.21.3,1.57.59,3.15.9,4.72ZM974.13,346.26c-5.61,5.73-11.83,12.11-17.47,17.95,6.57-10.84,11.8-20.44,15.5-28.52.67,3.5,1.32,7.03,1.97,10.57ZM957.71,396.13c7.12-7.44,14.44-14.76,21.78-22.04,1.34,6.42,2.79,12.83,4.47,19.17-16.27,24.61-26.46,52.59-34.87,80.71-.13-22.01-.43-47.63-.52-68.04,2.98-3.32,6.05-6.56,9.14-9.8ZM948.61,323.49c.17-18.84.43-37.8.97-59.21,10.31,17.85,15.79,38.34,20.09,58.87-6.2,11.65-13.68,23.96-21.21,35.78.01-12.14.06-23.77.15-35.44ZM580.89,614.61c0-.13,0-.27-.01-.4.03.13.05.27.01.4ZM593.8,408.87c.07,1.81.15,3.61.23,5.41-3.33,3.88-6.67,7.76-10.01,11.63,3.14-5.68,6.41-11.36,9.78-17.04ZM738.28,582.68c.3-21.83,2.31-43.71,5.42-65.54,6.8,19.93,11.77,40.78,12.28,61.91-6.37,9.77-12.34,19.83-17.14,30.54-.51-8.94-.69-17.91-.56-26.9ZM670.91,568.63c.9-12.2,2.35-24.37,4.41-36.43-1.56,12.28-3.02,24.46-4.41,36.43ZM726.14,475.82c-13.77,30.35-27.54,60.69-41.31,91.04,4.78-43.86,9.85-98.52,15.16-139.45,9.03,15.97,18.01,31.96,26.14,48.41ZM530.7,637.18c-6.24,9.91-12.28,19.94-18.3,29.97-1.89-19.97-3.41-39.98-3.18-60.02,1.63,2.14,5.38,6.92,5.81,6.97.07-.57-4.8-7-5.79-8.35.37-20.81,2.24-41.59,6.6-61.95,6.06,93.1,12.5,76.24,12.09,5.8-.2-31.28-8.24-50.91,18.9-76.12-9.11,27.06-19.5,64.85-12.07,91.05,2.78-2.96,3.01-11.77,4.29-16.29,3.63-21.92,12.91-54.94,23.93-79.59-6.35,56.16-24.48,111.81-32.28,168.53ZM550.29,591.59c4.28-31.28,10.05-63.44,14.94-94.87,2.85,27.71,6.67,54.88,4,82.86-7.27,10.24-14.41,20.57-21.33,31.05.74-6.35,1.54-12.69,2.4-19.04ZM564.72,464.59c.18-.41.37-.82.56-1.23-.15.86-.31,1.72-.47,2.58-.03-.45-.06-.9-.09-1.35ZM761.01,590.59c-2.28,8.33-5.71,25.41-2.94,31.02.59-3.39,1.39-6.78,2.34-10.16.45,4.28,1.6,8.43,2.7,12.57.04-.02.07-.05.1-.08.09.31.16.72.42.15.1.15.1.76.33.52.02.07.06.15.12.09.03.08.13,0,.21-.12.19.98.82-.55.4-.96.37-.61-.02-1.02-.16-1.59.1-.26.04-.43-.04-.65-.46-4.7-3.02-9.5-2.71-14.53,3.68-11.58,8.96-22.83,14.5-33.86-3.09,20.61-5.71,39.86-7.3,57.08-7.51,14.13-14.59,28.52-20.35,43.46-.08-.51-.17-1.02-.25-1.53.16.16.3.25.41.26-4.36-16.98-7.72-34.13-9.14-51.68,7.97-10.01,12.14-18.3,21.73-32.02-.13.68-.24,1.36-.36,2.04ZM570.19,525.55c-1.1-15.88-5.29-31.93-2.11-47.72,1.11,15.23,1.87,31.25,2.11,47.72ZM479.61,540.54c4.99-30.87,13.46-61.52,28.61-89.03,1.35,18.53,2.82,36.1,4.36,54.09-10.9,11.74-21.87,23.4-32.97,34.94ZM475.76,549.71c-.27,1.92-.52,3.85-.77,5.78-.62-1.02-1.23-2.05-1.85-3.07.87-.9,1.74-1.8,2.62-2.71ZM738.65,503.52c.4,1,.78,2.01,1.17,3.01-5.88,26.99-11.33,57.78-13.81,87.66-3.83-11.01-7.83-21.96-11.9-32.88,7.11-18.21,16-39.17,24.55-57.78ZM819.83,488.71c20.76-39.01,42.51-77.41,66.79-114.25.16.31.31.63.46.95-3.93,16.78-7.86,33.55-11.8,50.33-.05,0-.1,0-.15,0,1.41-1.47-2.67-.73-2.96-.94-3.49-.53-3.45.56-4.58,3.47-19.36,44.06-38.5,89.14-61,132.03-1.57-6.62-3.24-13.21-4.98-19.8-.25.09-.46.25-.63.45-.09-.36-.19-.72-.28-1.07-.04-.16-3.32,2.46-3.24,2.4-.95.92-2.27,1.63-2.94,2.76.24.92.47,1.84.7,2.75-.29,7.76,4,16.53,5.06,24.65-4.8,9.15-9.74,18.22-14.73,27.27,3.44-20.71,7.34-43.44,10.32-65.09,7.91-15.37,15.86-30.69,23.95-45.91ZM759.07,460.61c11.69-23.17,23.17-44.69,36.59-67.84-1.22,32.7-3.86,69.83-8.68,106.94-2.1,31.44-10.02,50.88-28.84,76.04-1.08-21.9-6.16-43.68-13.61-64.3,2.49-17.93,4.89-34.97,14.54-50.84ZM742.13,495.89c.04-.08.07-.16.11-.24-.46,2.03-.93,4.09-1.39,6.16-.22-.55-.45-1.1-.67-1.65.64-1.41,1.29-2.83,1.95-4.27ZM680.08,365.78c17.57-49.58,39.21-97.06,63.06-143.79-23.31,64.02-36.56,122.35-49.46,188.6-6.09-10.83-12.09-21.72-17.75-32.8,1.35-4.12,2.7-8.14,4.15-12.01ZM653.68,455.12c6.02-24.88,12.93-49.6,21.11-73.89,5.62,11.25,11.76,22.26,17.91,33.23-1.95,7.73-3.88,15.46-5.76,23.21-11.91,12.41-23.6,25.02-35.03,37.88-.51-7.03-.32-13.67,1.77-20.43ZM607.64,528.4c-9.61,12.13-18.98,24.45-28.13,36.95-1.09-31.37-3.58-62.69-7.4-93.84-5.9-23.79,7.73-35.79,22.18-52.06,1.72,36.71,6.45,73.65,13.35,108.96ZM591.3,316.48c.93-5.59,1.9-11.17,2.89-16.75-.99,28.65-1.62,58.08-1.06,86.59-5.47,7.83-10.7,15.84-15.61,23.93,4.28-31.41,8.59-62.71,13.78-93.77ZM563.8,434.71c-.22.43-.45.86-.66,1.29-.14-3.16-.27-6.32-.39-9.47.36,2.68.71,5.41,1.06,8.18ZM242.68,473.12c-.51,9.68-1.06,19.52-1.63,29.46-1.02-6.43-2-12.64-2.94-18.67,1.5-3.49,3.02-7.09,4.57-10.79ZM405.52,355.65c-.56,10.82-1.23,21.51-1.72,32.32-4.77-11.06-9.72-21.87-14.96-32.9,6.57-21.1,13.66-42.04,21.15-62.85-1.75,21.27-3.13,42.32-4.47,63.42ZM386.69,385.23c16.64,28.24,18.66,25.2,12.1,57.74-1.67-3.36-3.35-6.71-5.05-10.06-2.72,5.1,2.69,9.87,4.32,14.66-2.23,14.34-4.29,28.39-6.11,42.6-4.56,8.83-9.18,17.89-13.79,27.14-9.82-21.35-7.28-44.47-7-67.37-.26-24.95,2.46-48.67,10.87-72.27,1.58,2.52,3.14,5.04,4.66,7.57ZM401.86,518.49c1.43,24.12,1.93,47.29-4.03,70.69-5.61-23.28,2.39-45.07,4.03-70.69ZM372.26,528.33c-.4-7.86-.71-15.73-.94-23.59,1.82,5.2,3.58,10.42,5.29,15.67-1.43,2.89-2.87,5.8-4.29,8.73-.02-.27-.03-.54-.05-.81ZM389.4,659.94c2.65-17.32,5.31-34.64,7.96-51.95-.88,15.04-6.22,32.46-4.54,46.62,5.53-6.11,7.53-18.47,10.37-27.01,5.24,15.34-3.55,29.08-7.98,43.57-2.04-3.69-4-7.41-5.81-11.23ZM404.48,622.43c1.11-4.46,2.19-9.08,3.1-13.64.62,10.24,4.09,19.34-.61,28.53-.79-4.97-1.61-9.93-2.48-14.88ZM416.84,550.54c1.78-14.31,3.45-29.4,5.12-44.07,4.92,14.32,9.85,28.63,14.77,42.95-5.58,16.86-11.25,33.7-16.96,50.52-.93-15.45-1.92-32.11-2.93-49.4ZM388.73,664.32c1.65,3.5,3.41,6.96,5.25,10.36-3.57,10.17-7.2,20.32-10.88,30.45,1.38-13.67,3.52-27.24,5.63-40.81ZM377.5,539.64c-1.38,5.27-2.52,10.63-3.41,16.01-1.34-5.78,1.32-10.76,3.41-16.01ZM391.94,617.15c.75-10.65,1.64-21.51,2.59-32.29,4.67,14.17-2.09,28.67-3.34,43.07.2-3.6.44-7.03.75-10.77ZM373.95,599.77c-.65-7.51-.55-15.08-.07-22.58.56,6.02,1.12,12.04,1.62,18.07,0,0,.11-.12.25-.28.06.19-.02.67.12.62-.03.43.3.08.45-.13.09.24-.06.78.19.81.06.02.15-.07.24-.16.05.17-.06.62.25.37-.11.64.73-.2.77-.53-.03-.31-.06-.61-.1-.92.27-.7-.1-1.5-.09-2.25-.69-9-1.93-18.08-2.63-27.12,1.19-10.28,3.6-20.39,6.31-30.35,6.43,14.49,3.05,29.99,2.52,45.05-.81,22.47-1.16,45.42.67,67.54-5.23-15.4-8.4-32.02-10.51-48.14ZM370.14,421.08c-1.16,23.13-1.59,46.3-1.19,69.46-3.02-8.28-6.18-16.51-9.5-24.68,3.32-14.99,6.89-29.92,10.69-44.79ZM382.55,531.29s0,0,0,0c1.75-5.74,4.07-11.29,6.48-16.77-1.1,10.02-2.05,19.76-2.84,29.14-1.18-4.13-2.39-8.25-3.65-12.37ZM438.86,542.98c-4.71-15.34-10.02-30.48-15.86-45.41,1.37-10.28,1.85-20.77,4.89-30.75,7.26,16.32,14.32,32.07,21.02,45.56-3.33,10.21-6.68,20.41-10.05,30.6ZM412.84,472.95c-1.73-7.96-.17-15.31,4.02-22.24-1.47,7.41-2.82,14.84-4.02,22.24ZM456.07,365.93c5.51-12.62,10.85-25.37,15.88-38.28-6.85,40.85-12.51,74.57-15.98,112.33-3.68,21.18,1.3,46.31-5.67,68.13-6.3-14.3-13.65-33.91-19.81-51.07.73-3.76,2.92-8.84,2.98-11.95.05-.51.84-1.91-.19-1.11-.04.03-.09.06-.15.09,0-.38.58-1.31.22-1.39.07-.24.13-.49.2-.73-3.58,1.15-3.07,6.47-4.39,9.56,2.61-16.84,6.09-33.06,9.5-47.14,5.92-12.73,11.76-25.53,17.41-38.45ZM416.84,442.39c-1.66,3.18-3.35,6.42-5.07,9.71-.33-5.53,1.29-10.92,1.91-16.45,1.07,2.26,2.12,4.51,3.15,6.73ZM373.67,372.84c-6.11,21.05-11.7,42.25-16.8,63.58.83-31.59,1.2-62.67,1.3-94.19,5.6,7.78,11.02,15.63,16.21,23.52-.24,2.36-.48,4.73-.71,7.09ZM323.62,237.66c3.86,14.67,9.41,26.45,18.91,46.56-8.03-10.14-17.64-21.66-24.48-29.24,1.77-5.53,3.62-11.28,5.57-17.33ZM331.3,291.6c-6.72-7.75-12.95-14.46-18.56-20.04,1-3.13,2.03-6.32,3.07-9.58,4.39,8.76,10.29,19.89,15.49,29.63ZM303.18,301.46c2.13-6.68,4.28-13.39,6.49-20.3,13.35,15.4,26.59,31.63,39.15,48.34-11.38,25.01-21.73,50.52-29.96,76.75-1.91,1.51-6.27,16.84-9.31,29.06-2.73-22.49-7.69-36.44-14.08-36.84,3.72,27,7.53,57.52,6.2,86.18-19.13,29.97-35.35,61.81-48.28,94.93-1.14-7.52-2.32-15.07-3.53-22.64,5.14-18.73,11.78-38.82,16.2-56.89.06-.51.86-1.89-.18-1.13-.04.02-.1.06-.16.09,0-.36.62-1.33.21-1.36.08-.27.16-.54.23-.81-.64.43-1.9.87-2.31,1.58-4.73,16.29-9.46,32.57-14.18,48.86-.49-61.54-4.08-50.85,21.32-105.38-.02.01-.07.03-.1.04.14-.51,1.27-1.91.09-1.26-.1.04-.25.1-.42.17.07-.37,1.09-1.63.27-1.3.3-.59.66-1.16-.27-.62-9.32,12.45-14.08,29.6-20.98,43.96.01-8.94.04-17.88.07-26.82,7.5-19.96,16.25-40.85,25.43-60.43,10.06-23.31,21.55-48.61,28.77-71.83.11-.51.95-1.81-.1-1.18-.06.03-.15.06-.25.1.02-.34.79-1.41.21-1.28.7-1.32-.29-.48-.92-.31-10.32,22.12-18.05,46.96-28.91,69.42,12.61-36.96,20.9-62.89,29.3-89.12ZM194.46,505.94c5.63,8.33,10.87,15.91,15.58,22.73-1.63,6.07-2.35,10.09-1.96,11.54-5.21,13.74-9.97,27.68-14.2,41.76-1.94-27.87-3.52-55.77-4.54-83.69,1.73,2.61,3.45,5.18,5.12,7.66ZM172.46,386.41c2.45-23.21,5.67-45.35,9.8-68,.07,42.07-9.14,83.13-13.11,124.89.18-19,1.47-38.02,3.31-56.89ZM109.71,275.4c16.17,36.4,18.26,78.88,28.71,117.87-16.27,24.61-26.46,52.59-34.87,80.71-.63-81.15-1.27-137.96.47-209.69,2.03,3.5,3.94,7.2,5.68,11.11ZM89.93,536.62c.02-.09.04-.18.06-.27,0,.35,0,.7,0,1.05-.02-.26-.05-.52-.07-.78ZM154.35,377.96c4.05-4.46,8.21-8.82,12.79-12.74-2.98,15.87-5.57,32.08-7.36,48.22-2.88-11.52-4.48-23.28-5.43-35.48ZM175.41,458.31c-9.76-18.44,3.65-59.89,4.93-82.47-.61,31.01-.59,62.04.06,93.05-1.7-3.46-3.36-7.04-4.99-10.59ZM218.66,535.49c-.91-1.46-1.85-2.98-2.82-4.53,3.91-7,9.04-17.42,14.85-30.24,3.08,22.31,3.82,25.88-3.91,47.8-2.35-3.77-5.06-8.12-8.12-13.03ZM236.74,564.6c-.03-.06-6.01-9.78-7.98-12.9,1.76-6.18,3.65-12.32,5.61-18.44.78,10.4,3.65,21.3,2.66,31.83-.1-.16-.2-.33-.29-.49ZM322.91,436.59c-.48-9.29-1.36-20.38-2.43-26.29,8.35-26.66,18.79-52.64,30.4-78.04,1.21,1.62,2.41,3.26,3.61,4.89-1.57,34.17-3.76,67.84-6.38,102-3.12-6.94-6.35-13.82-9.65-20.67,1.69-5.24,3.45-10.39,5.27-15.39-2.92-.38-6.09,2.12-9.33,7.02-.28-.56-.55-1.13-.83-1.69-.4,1.28-1.35,3.03-.83,4.39-3.28,5.73-6.62,13.81-9.83,23.79ZM357.09,561.6c-2.57,5.74-5.09,11.52-7.54,17.33,4.45-35.12,1.89-73.6,8.9-108.45,3.73,9.27,7.29,18.61,10.67,28.02.26,11.1.68,22.2,1.29,33.29-3.15,10.05-9.31,19.67-13.31,29.81ZM452.08,512.16c.64-1.96,1.27-3.92,1.91-5.89.14,3.67.32,7.42.55,11.26-.79-1.69-1.61-3.47-2.46-5.37ZM468.97,548.89c.33.54.66,1.08.99,1.62-.21.21-.41.43-.62.64-.13-.76-.25-1.51-.37-2.26ZM471.91,553.69c.91,1.46,1.83,2.9,2.75,4.34-.6,4.82-1.14,9.65-1.59,14.48-1.01-5.64-2.02-11.3-2.99-16.95.61-.63,1.21-1.25,1.82-1.88ZM477.01,558.76c.5-4.02,1.05-8.03,1.64-12.03,11.55-11.98,23.01-24.06,34.35-36.24,1.11,5.16-.62,9.81-1.97,14.73-5.92,22.93-8.46,46.6-9.34,70.23-8.68-12.01-16.93-24.13-24.68-36.68ZM595.84,551.02c-5.73,18.83-10.56,37.71-13.85,57.07-2.61-12.21-1.64-24.73-2.3-37.15,5.64-7.73,11.35-15.41,17.17-23.01-.34,1.04-.69,2.08-1.02,3.09ZM628.83,602.32c-1.22,4.65-2.35,9.32-3.39,13.99-4.23-29.7-9.36-55.42-13.83-87.3,6.15-7.73,12.39-15.39,18.72-22.97-11.31,89.38-10.5,159.56,10.24,16.22.29,12.3.91,24.16,1.88,36.23-5.08,14.41-9.76,29.05-13.62,43.84ZM654.33,526.69c-.71-14.9-1.58-30.94-2.22-45.97,10.82-12.22,21.87-24.21,33.12-36.03-8.05,27.17-20.61,54.58-30.91,82ZM707.19,573.68c-10.98,30.44-21.18,60.16-30.57,91.27-4.35-23.24,3.55-45.04,5.11-70.24,5.38-40.91,31.78-76.71,46.21-115.23,2.94,6.07,5.77,12.2,8.4,18.42-8.05,19.96-16.12,40.76-23.38,60.33-2.91-7.77-5.85-15.52-8.79-23.27-.56,1.11-1.17,2.51-1.22,3.81,2.9,7.68,5.82,15.35,8.68,23.04-1.48,3.98-2.96,7.93-4.43,11.88ZM835.03,598.83c-6.23,21.96-10.56,39.86-14.75,61.27-1.12-28.25-4.57-56.41-10.2-84.11,21.98-42.01,41.86-85.07,60.18-128.8-11.84,50.51-23.91,101.04-35.23,151.65ZM892.53,453.71c-11.41,22.15-20.63,42.47-29.53,64.21,10.21-42.97,20.29-85.97,30.38-128.96,5.33,12.14,9.92,24.66,13.92,37.09-5.02,9.24-10.2,18.46-14.77,27.66ZM933.38,514.18c-2.31-25.14-5.02-53.02-8.83-79.75,4.5-5.56,8.86-11.2,13.56-16.6-2.41,35.71-1.52,75.86-3.4,110.69-.42-4.52-.86-9.3-1.33-14.34ZM919.36,617.86c3.86-23.94,8.46-47.76,13.83-71.4,1.89,12.89,3.12,18.75,3.11,29.39-5.41,13.23-11.19,27.43-16.94,42.01ZM999.9,377.96c4.05-4.46,8.21-8.82,12.79-12.74-2.98,15.87-5.57,32.08-7.36,48.22-2.88-11.52-4.48-23.28-5.43-35.48ZM1020.95,458.31c-9.76-18.44,3.65-59.89,4.93-82.47-.62,31.01-.59,62.04.06,93.05-1.7-3.46-3.36-7.04-4.99-10.59ZM1064.2,535.49c-.91-1.46-1.85-2.98-2.82-4.53,3.91-7,9.04-17.42,14.85-30.24,3.08,22.31,3.82,25.88-3.91,47.8-2.35-3.77-5.06-8.12-8.12-13.03ZM1082.28,564.6c-.03-.06-6.01-9.78-7.98-12.9,1.76-6.18,3.66-12.33,5.61-18.45.78,10.4,3.65,21.3,2.66,31.83-.1-.16-.2-.33-.29-.49ZM1168.46,436.59c-.48-9.29-1.36-20.38-2.43-26.29,8.35-26.66,18.79-52.64,30.4-78.04,1.21,1.62,2.41,3.25,3.61,4.89-1.57,34.17-3.76,67.84-6.38,102.01-3.12-6.94-6.35-13.82-9.65-20.67,1.69-5.24,3.45-10.39,5.27-15.39-2.92-.38-6.09,2.12-9.33,7.02-.28-.56-.55-1.13-.83-1.7-.4,1.28-1.35,3.03-.83,4.39-3.28,5.73-6.62,13.81-9.83,23.79ZM1202.64,561.6c-2.57,5.74-5.09,11.52-7.55,17.33,4.45-35.12,1.89-73.6,8.9-108.45,3.73,9.27,7.29,18.61,10.67,28.02.26,11.1.68,22.2,1.29,33.29-3.15,10.05-9.31,19.67-13.31,29.81ZM1297.63,512.16c.64-1.96,1.27-3.92,1.91-5.89.14,3.67.33,7.42.55,11.26-.79-1.69-1.61-3.47-2.46-5.37ZM1314.51,548.89c.33.54.66,1.08.99,1.62-.21.21-.41.43-.62.64-.13-.76-.25-1.51-.37-2.26ZM1317.46,553.69c.91,1.46,1.83,2.9,2.75,4.34-.6,4.82-1.14,9.65-1.59,14.48-1.01-5.64-2.02-11.3-2.99-16.95.61-.63,1.21-1.25,1.82-1.88ZM1322.55,558.76c.5-4.02,1.05-8.03,1.64-12.03,11.55-11.98,23.01-24.06,34.35-36.24,1.11,5.16-.62,9.81-1.97,14.73-5.92,22.93-8.46,46.6-9.34,70.22-8.68-12.01-16.93-24.13-24.68-36.68ZM1441.39,551.02c-5.73,18.83-10.56,37.71-13.85,57.07-2.61-12.21-1.64-24.73-2.3-37.15,5.64-7.73,11.35-15.41,17.17-23.01-.34,1.04-.69,2.08-1.02,3.09ZM1474.38,602.32c-1.22,4.65-2.34,9.32-3.39,13.99-4.23-29.7-9.36-55.42-13.83-87.3,6.15-7.73,12.38-15.39,18.72-22.97-11.31,89.38-10.5,159.56,10.24,16.22.29,12.3.91,24.16,1.88,36.23-5.08,14.41-9.76,29.05-13.62,43.84ZM1499.87,526.69c-.71-14.9-1.58-30.94-2.22-45.97,10.82-12.22,21.87-24.21,33.12-36.03-8.05,27.17-20.61,54.58-30.91,82ZM1552.73,573.68c-10.98,30.44-21.18,60.16-30.57,91.27-4.34-23.24,3.55-45.03,5.11-70.24,5.38-40.91,31.78-76.71,46.21-115.23,2.94,6.07,5.77,12.2,8.4,18.42-8.05,19.96-16.12,40.76-23.38,60.33-2.91-7.77-5.85-15.52-8.79-23.27-.56,1.11-1.17,2.51-1.22,3.81,2.9,7.68,5.82,15.35,8.68,23.04-1.48,3.98-2.96,7.93-4.43,11.88ZM1680.58,598.83c-6.23,21.96-10.56,39.86-14.75,61.27-1.12-28.25-4.57-56.41-10.2-84.11,21.98-42.01,41.86-85.07,60.18-128.8-11.84,50.51-23.91,101.04-35.23,151.65Z"/></g><g id="flowewrs"><path class="cls-5" d="M383.38,392.85c-1.77-.95-3.63-.98-4.66.78-5.02,1.34-5.08.49-8.64,5.29-2.48,2.59-6.29,3.54-8.82,6.08-1.57,1.58-2.57,3.71-4.38,5-1,.71-2.4,1.53-2.09,2.72.27,1.04,1.62,1.26,2.54,1.81,2.96,2.77,3.95,7.24,6.04,10.69,2.87,6.73,10.44,13.91,17.99,13.36.03-.48-.78-.31-.93-.67-.08-.19.28-.39.31-.18.17,3.61-1.89,5.67.27,9.29-.3,4.13,1.68,7.47,3.08,11.23.59,3.42,2.16,6.62,4.68,8.86.38,1.82.8,3.75,2.28,5.05-.17-1.59.76-2.77,2.39-2.73,3.98-.35,7.15-3.35,10.45-5.28,2.57-6.11,11.54-6.02,13.15-12.61,4.15,3.66,17.72,6.73,23.15,5.77,2.75-1.75,5.17-4.44,8.74-4.33.77-5.08-1.11-10.33.17-15.41-2.01-5.58-5.83-10.63-6.88-16.67,8.74-7.16,9.93-18.52,15.24-27.55-16.19-3.71-15.12-10.13-34.68-6.49-.04-4.44-3.49-7.68-7.39-9.2-5.63-2.88-10.09-7.54-14.97-11.57-4.92-3.81-14.15,17.05-14.97,21.21-.55,2.02-.9,3.85-2.08,5.57Z"/><path class="cls-1" d="M401.94,384.41s4.29,17.68,4.36,18.94c.38,2.72.94,4.17-1.38,5.3l-4.49-6.87,3.53,7.61-1.9,1.38-1.16-.37.14,1.21-.66.78-5.29-1.69,4.91,2.68-1.03,2.87-13.75-.9,13.54,3.74.23,1.65-4.29,1.95,4.56-.23,1.84,4.08.9.29-3.67,3.84,4.29-3.23.76.53.08,1.19-6.61,19.79,9.15-18.8,1.54-.62,1.62.4-.16,4.14,1.08-4.49,2.08-.32,1.63,2.91-.29-3.12.79-.27,2.36,3.73-1.13-4.67,1.46-.93,15.25,12.27-13.8-13.49,1.13-1.91c-.21-.85.03-2.63.24-3.48l1.52-.39-.89-.69-.84-2.48,1.85-.87-2.03-.76s-.56-1.17-.46-1.31,26.55-15.46,26.55-15.46l-27.55,13.86-.5-1.73-.88-.34,1.47-2.97-2.41,2.08c-.83-.52-2.61-1.34-3.61-1.27l.15-2.11-1.77,1.53-1.03-.04-7.45-22.94Z"/><path class="cls-2" d="M414.93,416.9c.15-1.18-.64-2.46-1.56-3.16,1.02-2.94-9.43-2.44-7.11.88-1.33-.01-3.16.29-3.31,1.94-1.49,1.71-3.21,4.59-1.29,6.59-.91,4.14,5.53,3.18,7.71,1.84.42.25.99.2,1.41-.09,1.38.36,3.3-.65,3.27-2.2,2.68-.51,2.74-4.43.88-5.82Z"/><path class="cls-4" d="M410.1,417.27c-1.33-3.28-5.6.9-6.78,2.57-2.38,7.65,9.34,1.75,6.78-2.57Z"/><path class="cls-5" d="M766.94,284.68c-1.44-1.41-3.21-1.96-4.69-.56-5.2-.11-5.01-.95-9.78,2.66-3.1,1.8-7.03,1.64-10.16,3.37-1.95,1.08-3.51,2.84-5.61,3.58-1.16.4-2.73.8-2.77,2.03-.03,1.08,1.2,1.66,1.93,2.45,2.07,3.48,1.77,8.06,2.82,11.95.87,7.27,6.13,16.27,13.54,17.85.16-.45-.66-.52-.7-.9-.02-.21.38-.29.35-.09-.85,3.51-3.4,4.91-2.33,8.99-1.45,3.88-.47,7.64-.18,11.64-.39,3.45.22,6.96,2.02,9.81-.15,1.86-.28,3.82.78,5.49.28-1.58,1.5-2.45,3.05-1.95,3.92.77,7.8-1.21,11.51-2.15,4.18-5.15,12.76-2.55,16.15-8.44,2.96,4.67,15.14,11.41,20.62,12,3.13-.91,6.21-2.82,9.6-1.71,2.16-4.67,1.82-10.23,4.47-14.75-.38-5.92-2.63-11.83-1.95-17.93,10.4-4.43,14.71-15.01,22.33-22.19-14.51-8.09-11.68-13.95-31.49-15.93,1.21-4.28-1.2-8.35-4.53-10.9-4.6-4.34-7.58-10.06-11.14-15.29-3.66-5.03-18.35,12.42-20.3,16.18-1.09,1.78-1.94,3.44-3.55,4.77Z"/><path class="cls-1" d="M787.13,281.76s-.82,18.18-1.11,19.41c-.4,2.71-.27,4.26-2.81,4.71l-2.39-7.85,1.26,8.29-2.2.79-1.01-.68-.21,1.2-.85.57-4.6-3.1,3.97,3.94-1.8,2.47-12.95-4.7,11.96,7.38-.24,1.65-4.67.67,4.44,1.05.63,4.43.78.53-4.6,2.66,5.02-1.9.58.73-.25,1.17-11.88,17.15,14.04-15.5,1.65-.16,1.44.84-1.31,3.93,2.29-4.01,2.09.27.76,3.25.6-3.08.83-.04,1.23,4.24.22-4.8,1.66-.49,11.21,16.04-9.48-16.81,1.62-1.52c.04-.88.76-2.52,1.2-3.27l1.57.05-.66-.91-.11-2.62,2.02-.31-1.73-1.3s-.21-1.28-.07-1.39,29.81-7.43,29.81-7.43l-30.32,5.61v-1.8s-.74-.57-.74-.57l2.24-2.44-2.9,1.33c-.65-.73-2.13-2.01-3.11-2.23l.73-1.98-2.13.97-.98-.33-.74-24.11Z"/><path class="cls-2" d="M790.52,316.59c.48-1.09.08-2.54-.62-3.47,1.8-2.54-8.37-4.98-7.08-1.14-1.28-.38-3.12-.61-3.72.94-1.91,1.22-4.36,3.51-3.08,5.97-2.03,3.72,4.42,4.6,6.89,3.92.33.36.89.47,1.38.31,1.23.73,3.35.3,3.76-1.19,2.71.26,3.87-3.49,2.47-5.34Z"/><path class="cls-4" d="M785.78,315.59c-.36-3.52-5.63-.7-7.22.57-4.42,6.68,8.48,4.29,7.22-.57Z"/><path class="cls-5" d="M167.64,249.94c-1.89-.69-3.73-.47-4.51,1.42-4.79,2.04-4.96,1.2-7.81,6.45-2.09,2.91-5.73,4.38-7.88,7.26-1.33,1.78-2.03,4.03-3.64,5.57-.89.85-2.16,1.86-1.69,2.99.41,1,1.78,1.02,2.77,1.44,3.32,2.33,4.93,6.62,7.48,9.74,3.78,6.26,12.28,12.31,19.68,10.7-.04-.48-.82-.2-1.01-.53-.11-.18.23-.42.28-.22.67,3.55-1.08,5.88,1.57,9.16.28,4.14,2.71,7.16,4.62,10.69,1.06,3.3,3.06,6.25,5.88,8.11.63,1.75,1.32,3.6,2.97,4.68-.39-1.56.36-2.85,1.98-3.03,3.89-.91,6.61-4.32,9.61-6.7,1.69-6.41,10.58-7.57,11.25-14.33,4.62,3.04,18.49,4.18,23.73,2.46,2.48-2.12,4.5-5.12,8.05-5.51.05-5.14-2.55-10.07-1.99-15.29-2.78-5.24-7.27-9.7-9.15-15.55,7.65-8.32,7.23-19.73,11.23-29.41-16.42-1.41-16.59-7.89-35.25-1.57-.66-4.4-4.53-7.12-8.61-8.07-5.97-2.07-11.05-6.05-16.44-9.35-5.4-3.08-11.62,18.87-11.85,23.1-.26,2.07-.35,3.93-1.28,5.81Z"/><path class="cls-1" d="M184.84,238.98s6.73,16.9,6.97,18.14c.75,2.64,1.51,4-.63,5.45l-5.4-6.17,4.56,7.04-1.68,1.63-1.2-.2.31,1.18-.54.86-5.47-.93,5.24,1.96-.62,2.99-13.74,1.04,13.93,1.81.46,1.6-3.98,2.53,4.48-.87,2.4,3.78.93.16-3.1,4.31,3.8-3.8.83.42.25,1.17-3.77,20.52,6.42-19.9,1.43-.83,1.66.17.42,4.12.44-4.6,2.02-.61,2.03,2.65-.72-3.05.74-.38,2.86,3.36-1.77-4.47,1.32-1.13,16.81,10.01-15.56-11.43.86-2.05c-.33-.81-.34-2.61-.25-3.48l1.45-.6-.97-.56-1.18-2.34,1.71-1.12-2.11-.47s-.72-1.08-.63-1.23,24.12-19.03,24.12-19.03l-25.33,17.58-.73-1.64-.92-.21,1.04-3.14-2.1,2.4c-.9-.4-2.77-.96-3.76-.75l-.15-2.11-1.54,1.76-1.03.11-10.59-21.67Z"/><path class="cls-2" d="M202.26,269.33c-.01-1.19-.98-2.35-1.99-2.91.6-3.06-9.68-1.1-6.92,1.87-1.32.18-3.09.73-3.01,2.39-1.24,1.9-2.53,4.99-.35,6.71-.32,4.23,5.92,2.38,7.89.74.45.19,1.01.06,1.38-.28,1.42.16,3.17-1.11,2.93-2.63,2.58-.88,2.09-4.77.06-5.89Z"/><path class="cls-4" d="M197.53,270.38c-1.77-3.06-5.42,1.67-6.35,3.49-1.28,7.91,9.49.42,6.35-3.49Z"/><path class="cls-5" d="M693.35,397.63c-1.77-.95-3.63-.98-4.66.78-5.02,1.34-5.08.49-8.64,5.29-2.48,2.59-6.29,3.54-8.82,6.08-1.57,1.58-2.57,3.71-4.38,5-1,.71-2.4,1.53-2.09,2.72.27,1.04,1.62,1.26,2.54,1.81,2.96,2.77,3.95,7.24,6.04,10.69,2.87,6.73,10.44,13.91,17.99,13.36.03-.48-.78-.31-.93-.67-.08-.19.28-.39.31-.18.17,3.61-1.89,5.67.27,9.29-.3,4.13,1.68,7.47,3.08,11.23.59,3.42,2.16,6.62,4.68,8.86.38,1.82.8,3.75,2.28,5.05-.17-1.59.76-2.77,2.39-2.73,3.98-.35,7.15-3.35,10.45-5.28,2.57-6.11,11.54-6.02,13.15-12.61,4.15,3.66,17.72,6.73,23.15,5.77,2.75-1.75,5.17-4.44,8.74-4.33.77-5.08-1.11-10.33.17-15.41-2.01-5.58-5.83-10.63-6.88-16.67,8.74-7.16,9.93-18.52,15.24-27.55-16.19-3.71-15.12-10.13-34.68-6.49-.04-4.44-3.49-7.68-7.39-9.2-5.63-2.88-10.09-7.54-14.97-11.57-4.92-3.81-14.15,17.05-14.97,21.21-.55,2.02-.9,3.85-2.08,5.57Z"/><path class="cls-1" d="M711.92,389.19s4.29,17.68,4.36,18.94c.38,2.72.94,4.17-1.38,5.3l-4.49-6.87,3.53,7.61-1.9,1.38-1.16-.37.14,1.21-.66.78-5.29-1.69,4.91,2.68-1.03,2.87-13.75-.9,13.54,3.74.23,1.65-4.29,1.95,4.56-.23,1.84,4.08.9.29-3.67,3.84,4.29-3.23.76.53.08,1.19-6.61,19.79,9.15-18.8,1.54-.62,1.62.4-.16,4.14,1.08-4.49,2.08-.32,1.63,2.91-.29-3.12.79-.27,2.36,3.73-1.13-4.67,1.46-.93,15.25,12.27-13.8-13.49,1.13-1.91c-.21-.85.03-2.63.24-3.48l1.52-.39-.89-.69-.84-2.48,1.85-.87-2.03-.76s-.56-1.17-.46-1.31,26.55-15.46,26.55-15.46l-27.55,13.86-.5-1.73-.88-.34,1.47-2.97-2.41,2.08c-.83-.52-2.61-1.34-3.61-1.27l.15-2.11-1.77,1.53-1.03-.04-7.45-22.94Z"/><path class="cls-2" d="M724.91,421.68c.15-1.18-.64-2.46-1.56-3.16,1.02-2.94-9.43-2.44-7.11.88-1.33-.01-3.16.29-3.31,1.94-1.49,1.71-3.21,4.59-1.29,6.59-.91,4.14,5.53,3.18,7.71,1.84.42.25.99.2,1.41-.09,1.38.36,3.3-.65,3.27-2.2,2.68-.51,2.74-4.43.88-5.82Z"/><path class="cls-4" d="M720.08,422.05c-1.33-3.28-5.6.9-6.78,2.57-2.38,7.65,9.34,1.75,6.78-2.57Z"/><path class="cls-5" d="M566.32,268.79c1.44-1.41,3.21-1.96,4.69-.56,5.2-.11,5.01-.95,9.78,2.66,3.1,1.8,7.03,1.64,10.16,3.37,1.95,1.08,3.51,2.84,5.61,3.58,1.16.4,2.73.8,2.77,2.03.03,1.08-1.2,1.66-1.93,2.45-2.07,3.48-1.77,8.06-2.82,11.95-.87,7.27-6.13,16.27-13.54,17.85-.16-.45.66-.52.7-.9.02-.21-.38-.29-.35-.09.85,3.51,3.4,4.91,2.33,8.99,1.45,3.88.47,7.64.18,11.64.39,3.45-.22,6.96-2.02,9.81.15,1.86.28,3.82-.78,5.49-.28-1.58-1.5-2.45-3.05-1.95-3.92.77-7.8-1.21-11.51-2.15-4.18-5.15-12.76-2.55-16.15-8.44-2.96,4.67-15.14,11.41-20.62,12-3.13-.91-6.21-2.82-9.6-1.71-2.16-4.67-1.82-10.23-4.47-14.75.38-5.92,2.63-11.83,1.95-17.93-10.4-4.43-14.71-15.01-22.33-22.19,14.51-8.09,11.68-13.95,31.49-15.93-1.21-4.28,1.2-8.35,4.53-10.9,4.6-4.34,7.58-10.06,11.14-15.29,3.66-5.03,18.35,12.42,20.3,16.18,1.09,1.78,1.94,3.44,3.55,4.77Z"/><path class="cls-1" d="M546.14,265.87s.82,18.18,1.11,19.41c.4,2.71.27,4.26,2.81,4.71l2.39-7.85-1.26,8.29,2.2.79,1.01-.68.21,1.2.85.57,4.6-3.1-3.97,3.94,1.8,2.47,12.95-4.7-11.96,7.38.24,1.65,4.67.67-4.44,1.05-.63,4.43-.78.53,4.6,2.66-5.02-1.9-.58.73.25,1.17,11.88,17.15-14.04-15.5-1.65-.16-1.44.84,1.31,3.93-2.29-4.01-2.09.27-.76,3.25-.6-3.08-.83-.04-1.23,4.24-.22-4.8-1.66-.49-11.21,16.04,9.48-16.81-1.62-1.52c-.04-.88-.76-2.52-1.2-3.27l-1.57.05.66-.91.11-2.62-2.02-.31,1.73-1.3s.21-1.28.07-1.39-29.81-7.43-29.81-7.43l30.32,5.61v-1.8s.74-.57.74-.57l-2.24-2.44,2.9,1.33c.65-.73,2.13-2.01,3.11-2.23l-.73-1.98,2.13.97.98-.33.74-24.11Z"/><path class="cls-2" d="M544.26,306c.35.16.68.16.95.05.41,1.49,2.53,1.92,3.76,1.19.48.16,1.05.05,1.38-.31,2.46.68,8.92-.2,6.89-3.92,1.28-2.46-1.17-4.75-3.08-5.97-.61-1.55-2.44-1.32-3.72-.94,1.29-3.83-8.88-1.4-7.08,1.14-.69.93-1.09,2.38-.62,3.47-1.14,1.82-.68,4.27,1.52,5.29Z"/><path class="cls-4" d="M547.48,299.71c.36-3.52,5.63-.7,7.22.57,4.42,6.68-8.48,4.29-7.22-.57Z"/><path class="cls-5" d="M109.4,421.71c9.13-3.52,25.04,5.61,33.01,11.08-6.26,8.86-4.72,31-18.01,31.77,5.14,6.94,2.98,25.09-.2,35.43-1.23-4.16-7.27-.39-10.32-2.87-5.84-3.28-13.77-4.45-19-8.14-10.51,3.49-32.06,22.84-35-3.55-2.92-6.22,2.28-13.54.85-20.37-11.47-8.01-29.75-21.48-11.87-29.66,4.9-6.69,13.59-6.84,21.03-8.46-1.08-10.65,12.1-16.47,15.66-26.19,9.79-2.49,17.7,14.31,23.86,20.95Z"/><path class="cls-1" d="M89.21,418.79c.41,3.4.19,39.56,6.31,16.26.12,1.91-3.33,11.63,1.95,8.4-.22,4.04,4.53-.97,5.66-1.33-11.39,11.03,6.96,3.08,10.78,1.71-1.79,2.14-20.71,9.53-7.05,9.69-6.86.67-3.16,2.65-5.85,6.01,0,0,4.6,2.66,4.6,2.66-15.04-8.09,6.37,14.86,6.52,17.15-1.35-1.01-21.04-26.01-15.82-10.89-1.5-3.67-4.52-6.38-5.14-.49-.9-6.65-1.88-1.39-2.66,1.12,1.47-15.79-11.11,9.83-13.1,10.75l9.48-16.81c-2.32-.97-1.45-5.5-4.39-4.74,1.19-1.5,1.28-4.21-1.25-3.84,9.88-4.3-28.41-8.74-28-10.11,1.48-1.09,40.2,11.26,28.83.8,1.6.91,3.42,1.75,4.57-.27,1.79-.32,1.24-1.37.71-2.62,6.32,6.56,2.45-22.82,3.85-23.46Z"/><path class="cls-2" d="M87.34,458.92c8.02,5.05,20.47-2.73,8.55-10.14-3.02-.18-4.36-3.28-8.54-.65-1.93,2.06-3.62,8.85,0,10.79Z"/><path class="cls-4" d="M90.56,452.63c.36-3.52,5.63-.71,7.22.57,4.38,6.44-8.53,4.44-7.22-.57Z"/><path class="cls-5" d="M1228.92,392.85c-1.77-.95-3.63-.98-4.66.78-5.02,1.34-5.08.49-8.64,5.29-2.48,2.59-6.29,3.54-8.82,6.08-1.57,1.58-2.57,3.71-4.38,5-1,.71-2.4,1.53-2.09,2.72.27,1.04,1.62,1.26,2.54,1.81,2.96,2.77,3.95,7.24,6.04,10.69,2.87,6.73,10.44,13.91,17.99,13.36.03-.48-.78-.31-.93-.67-.08-.19.28-.39.31-.18.17,3.61-1.89,5.67.27,9.29-.3,4.13,1.68,7.47,3.08,11.23.59,3.42,2.16,6.62,4.68,8.86.38,1.82.8,3.75,2.28,5.05-.17-1.59.76-2.77,2.39-2.73,3.98-.35,7.15-3.35,10.45-5.28,2.57-6.11,11.54-6.02,13.15-12.61,4.15,3.66,17.72,6.73,23.15,5.77,2.75-1.75,5.17-4.44,8.74-4.33.77-5.08-1.11-10.33.17-15.41-2.01-5.58-5.83-10.63-6.88-16.67,8.74-7.16,9.93-18.52,15.24-27.55-16.19-3.71-15.12-10.13-34.68-6.49-.04-4.44-3.49-7.68-7.39-9.2-5.63-2.88-10.09-7.54-14.97-11.57-4.92-3.81-14.15,17.05-14.97,21.21-.55,2.02-.9,3.85-2.08,5.57Z"/><path class="cls-1" d="M1247.49,384.41s4.29,17.68,4.36,18.94c.38,2.72.94,4.17-1.38,5.3l-4.49-6.87,3.53,7.61-1.9,1.38-1.16-.37.14,1.21-.66.78-5.29-1.69,4.91,2.68-1.03,2.87-13.75-.9,13.54,3.74.23,1.65-4.29,1.95,4.56-.23,1.84,4.08.9.29-3.67,3.84,4.29-3.23.76.53.08,1.19-6.61,19.79,9.15-18.8,1.54-.62,1.62.4-.16,4.14,1.08-4.49,2.08-.32,1.63,2.91-.29-3.12.79-.27,2.36,3.73-1.13-4.67,1.46-.93,15.25,12.27-13.8-13.49,1.13-1.91c-.21-.85.03-2.63.24-3.48l1.52-.39-.89-.69-.84-2.48,1.85-.87-2.03-.76s-.56-1.17-.46-1.31,26.55-15.46,26.55-15.46l-27.55,13.86-.5-1.73-.88-.34,1.47-2.97-2.41,2.08c-.83-.52-2.61-1.34-3.61-1.27l.15-2.11-1.77,1.53-1.03-.04-7.45-22.94Z"/><path class="cls-2" d="M1260.48,416.9c.15-1.18-.64-2.46-1.56-3.16,1.02-2.94-9.43-2.44-7.11.88-1.33-.01-3.16.29-3.31,1.94-1.49,1.71-3.21,4.59-1.29,6.59-.91,4.14,5.53,3.18,7.71,1.84.42.25.99.2,1.41-.09,1.38.36,3.3-.65,3.27-2.2,2.68-.51,2.74-4.43.88-5.82Z"/><path class="cls-4" d="M1255.65,417.27c-1.33-3.28-5.6.9-6.78,2.57-2.38,7.65,9.34,1.75,6.78-2.57Z"/><path class="cls-5" d="M1612.49,284.68c-1.44-1.41-3.21-1.96-4.69-.56-5.2-.11-5.01-.95-9.78,2.66-3.1,1.8-7.03,1.64-10.16,3.37-1.95,1.08-3.51,2.84-5.61,3.58-1.16.4-2.73.8-2.77,2.03-.03,1.08,1.2,1.66,1.93,2.45,2.07,3.48,1.77,8.06,2.82,11.95.87,7.27,6.13,16.27,13.54,17.85.16-.45-.66-.52-.7-.9-.02-.21.38-.29.35-.09-.85,3.51-3.4,4.91-2.33,8.99-1.45,3.88-.47,7.64-.18,11.64-.39,3.45.22,6.96,2.02,9.81-.15,1.86-.28,3.82.78,5.49.28-1.58,1.5-2.45,3.05-1.95,3.92.77,7.8-1.21,11.51-2.15,4.18-5.15,12.76-2.55,16.15-8.44,2.96,4.67,15.14,11.41,20.62,12,3.13-.91,6.21-2.82,9.6-1.71,2.16-4.67,1.82-10.23,4.47-14.75-.38-5.92-2.63-11.83-1.95-17.93,10.4-4.43,14.71-15.01,22.33-22.19-14.51-8.09-11.68-13.95-31.49-15.93,1.21-4.28-1.2-8.35-4.53-10.9-4.6-4.34-7.58-10.06-11.14-15.29-3.66-5.03-18.35,12.42-20.3,16.18-1.09,1.78-1.94,3.44-3.55,4.77Z"/><path class="cls-1" d="M1632.67,281.76s-.82,18.18-1.11,19.41c-.4,2.71-.27,4.26-2.81,4.71l-2.39-7.85,1.26,8.29-2.2.79-1.01-.68-.21,1.2-.85.57-4.6-3.1,3.97,3.94-1.8,2.47-12.95-4.7,11.96,7.38-.24,1.65-4.67.67,4.44,1.05.63,4.43.78.53-4.6,2.66,5.02-1.9.58.73-.25,1.17-11.88,17.15,14.04-15.5,1.65-.16,1.44.84-1.31,3.93,2.29-4.01,2.09.27.76,3.25.6-3.08.83-.04,1.23,4.24.22-4.8,1.66-.49,11.21,16.04-9.48-16.81,1.62-1.52c.04-.88.76-2.52,1.2-3.27l1.57.05-.66-.91-.11-2.62,2.02-.31-1.73-1.3s-.21-1.28-.07-1.39,29.81-7.43,29.81-7.43l-30.32,5.61v-1.8s-.74-.57-.74-.57l2.24-2.44-2.9,1.33c-.65-.73-2.13-2.01-3.11-2.23l.73-1.98-2.13.97-.98-.33-.74-24.11Z"/><path class="cls-2" d="M1636.07,316.59c.48-1.09.08-2.54-.62-3.47,1.8-2.54-8.37-4.98-7.08-1.14-1.28-.38-3.12-.61-3.72.94-1.91,1.22-4.36,3.51-3.08,5.97-2.03,3.72,4.42,4.6,6.89,3.92.33.36.89.47,1.38.31,1.23.73,3.35.3,3.76-1.19,2.71.26,3.87-3.49,2.47-5.34Z"/><path class="cls-4" d="M1631.33,315.59c-.36-3.52-5.63-.7-7.22.57-4.42,6.68,8.48,4.29,7.22-.57Z"/><path class="cls-5" d="M1013.19,249.94c-8.76-.21-21.27,16.09-25.53,23.68,9.35,5.5,17.05,26.32,29.49,21.55-1.83,8.44,7.6,24.09,14.76,32.21-.59-4.3,6.47-3.34,8.23-6.86,3.98-5.39,10.72-9.72,13.97-15.24,11.18-1.53,37.91,8.61,30.44-17.63.1-6.87-7.64-11.4-9.16-18.22,7.16-12.02,18.28-31.82-1.38-31.91-7.21-4.08-15.2-.65-22.65.94-3.4-10.15-17.8-10.03-25.05-17.43-9.95,1.76-10.25,20.32-13.13,28.91Z"/><path class="cls-1" d="M1030.39,238.98c1.03,3.26,16.1,36.14.94,17.42.68,1.79,7.81,9.23,1.67,8.46,1.87,3.59-4.53.98-5.7,1.11,14.92,5.37-5.08,5.67-9.12,5.99,2.53,1.27,22.8-.03,10.42,5.94,6.76-2.21,3.85,1.12,7.81,3.07,0,0-3.1,4.31-3.1,4.31,10.39-13.56.31,16.16,1.11,18.31.82-1.48,8.48-32.36,9.94-16.43-.14-3.97,1.5-7.68,4.49-2.56-1.61-6.75,1.01-1.88,2.88-.07-7.83-13.79,14.17,4.39,16.36,4.41l-15.56-11.43c1.71-1.84-.94-5.61,2.05-6.12-1.7-.88-2.9-3.31-.44-4.01-10.77.15,22.3-19.65,21.37-20.74-1.8-.39-32.02,26.8-25.95,12.58-1.09,1.49-2.4,3-4.27,1.64-1.76.44-1.69-.74-1.73-2.09-3.06,8.58-11.62-19.79-13.16-19.8Z"/><path class="cls-2" d="M1047.81,269.33c-2.67-11.05-17.05,1.48-12.27,8.06,1.38,7.21,19.56-2.64,12.27-8.06Z"/><path class="cls-4" d="M1043.08,270.38c-1.77-3.06-5.42,1.67-6.35,3.49-1.35,7.67,9.6.54,6.35-3.49Z"/><path class="cls-5" d="M1538.9,397.63c-1.77-.95-3.63-.98-4.66.78-5.02,1.34-5.08.49-8.64,5.29-2.48,2.59-6.29,3.54-8.82,6.08-1.57,1.58-2.57,3.71-4.38,5-1,.71-2.4,1.53-2.09,2.72.27,1.04,1.62,1.26,2.54,1.81,2.96,2.77,3.95,7.24,6.04,10.69,2.87,6.73,10.44,13.91,17.99,13.36.03-.48-.78-.31-.93-.67-.08-.19.28-.39.31-.18.17,3.61-1.89,5.67.27,9.29-.3,4.13,1.68,7.47,3.08,11.23.59,3.42,2.16,6.62,4.68,8.86.38,1.82.8,3.75,2.28,5.05-.17-1.59.76-2.77,2.39-2.73,3.98-.35,7.15-3.35,10.45-5.28,2.57-6.11,11.54-6.02,13.15-12.61,4.15,3.66,17.72,6.73,23.15,5.77,2.75-1.75,5.17-4.44,8.74-4.33.77-5.08-1.11-10.33.17-15.41-2.01-5.58-5.83-10.63-6.88-16.67,8.74-7.16,9.93-18.52,15.24-27.55-16.19-3.71-15.12-10.13-34.68-6.49-.04-4.44-3.49-7.68-7.39-9.2-5.63-2.88-10.09-7.54-14.97-11.57-4.92-3.81-14.15,17.05-14.97,21.21-.55,2.02-.9,3.85-2.08,5.57Z"/><path class="cls-1" d="M1557.46,389.19s4.29,17.68,4.36,18.94c.38,2.72.94,4.17-1.38,5.3l-4.49-6.87,3.53,7.61-1.9,1.38-1.16-.37.14,1.21-.66.78-5.29-1.69,4.91,2.68-1.03,2.87-13.75-.9,13.54,3.74.23,1.65-4.29,1.95,4.56-.23,1.84,4.08.9.29-3.67,3.84,4.29-3.23.76.53.08,1.19-6.61,19.79,9.15-18.8,1.54-.62,1.62.4-.16,4.14,1.08-4.49,2.08-.32,1.63,2.91-.29-3.12.79-.27,2.36,3.73-1.13-4.67,1.46-.93,15.25,12.27-13.8-13.49,1.13-1.91c-.21-.85.03-2.63.24-3.48l1.52-.39-.89-.69-.84-2.48,1.85-.87-2.03-.76s-.56-1.17-.46-1.31,26.55-15.46,26.55-15.46l-27.55,13.86-.5-1.73-.88-.34,1.47-2.97-2.41,2.08c-.83-.52-2.61-1.34-3.61-1.27l.15-2.11-1.77,1.53-1.03-.04-7.45-22.94Z"/><path class="cls-2" d="M1570.46,421.68c.15-1.18-.64-2.46-1.56-3.16,1.02-2.94-9.43-2.44-7.11.88-1.33-.01-3.16.29-3.31,1.94-1.49,1.71-3.21,4.59-1.29,6.59-.91,4.14,5.53,3.18,7.71,1.84.42.25.99.2,1.41-.09,1.38.36,3.3-.65,3.27-2.2,2.68-.51,2.74-4.43.88-5.82Z"/><path class="cls-4" d="M1565.63,422.05c-1.33-3.28-5.6.9-6.78,2.57-2.38,7.65,9.34,1.75,6.78-2.57Z"/><path class="cls-5" d="M1411.87,268.79c1.44-1.41,3.21-1.96,4.69-.56,5.2-.11,5.01-.95,9.78,2.66,3.1,1.8,7.03,1.64,10.16,3.37,1.95,1.08,3.51,2.84,5.61,3.58,1.16.4,2.73.8,2.77,2.03.03,1.08-1.2,1.66-1.93,2.45-2.07,3.48-1.77,8.06-2.82,11.95-.87,7.27-6.13,16.27-13.54,17.85-.16-.45.66-.52.7-.9.02-.21-.38-.29-.35-.09.85,3.51,3.4,4.91,2.33,8.99,1.45,3.88.47,7.64.18,11.64.39,3.45-.22,6.96-2.02,9.81.15,1.86.28,3.82-.78,5.49-.28-1.58-1.5-2.45-3.05-1.95-3.92.77-7.8-1.21-11.51-2.15-4.18-5.15-12.76-2.55-16.15-8.44-2.96,4.67-15.14,11.41-20.62,12-3.13-.91-6.21-2.82-9.6-1.71-2.16-4.67-1.82-10.23-4.47-14.75.38-5.92,2.63-11.83,1.95-17.93-10.4-4.43-14.71-15.01-22.33-22.19,14.51-8.09,11.68-13.95,31.49-15.93-1.21-4.28,1.2-8.35,4.53-10.9,4.6-4.34,7.58-10.06,11.14-15.29,3.66-5.03,18.35,12.42,20.3,16.18,1.09,1.78,1.94,3.44,3.55,4.77Z"/><path class="cls-1" d="M1391.68,265.87s.82,18.18,1.11,19.41c.4,2.71.27,4.26,2.81,4.71l2.39-7.85-1.26,8.29,2.2.79,1.01-.68.21,1.2.85.57,4.6-3.1-3.97,3.94,1.8,2.47,12.95-4.7-11.96,7.38.24,1.65,4.67.67-4.44,1.05-.63,4.43-.78.53,4.6,2.66-5.02-1.9-.58.73.25,1.17,11.88,17.15-14.04-15.5-1.65-.16-1.44.84,1.31,3.93-2.29-4.01-2.09.27-.76,3.25-.6-3.08-.83-.04-1.23,4.24-.22-4.8-1.66-.49-11.21,16.04,9.48-16.81-1.62-1.52c-.04-.88-.76-2.52-1.2-3.27l-1.57.05.66-.91.11-2.62-2.02-.31,1.73-1.3s.21-1.28.07-1.39-29.81-7.43-29.81-7.43l30.32,5.61v-1.8s.74-.57.74-.57l-2.24-2.44,2.9,1.33c.65-.73,2.13-2.01,3.11-2.23l-.73-1.98,2.13.97.98-.33.74-24.11Z"/><path class="cls-2" d="M1389.81,306c.35.16.68.16.95.05.41,1.49,2.53,1.92,3.76,1.19.48.16,1.05.05,1.38-.31,2.46.68,8.92-.2,6.89-3.92,1.28-2.46-1.17-4.75-3.08-5.97-.61-1.55-2.44-1.32-3.72-.94,1.29-3.83-8.88-1.4-7.08,1.14-.69.93-1.09,2.38-.62,3.47-1.14,1.82-.68,4.27,1.52,5.29Z"/><path class="cls-4" d="M1393.03,299.71c.36-3.52,5.63-.7,7.22.57,4.42,6.68-8.48,4.29-7.22-.57Z"/><path class="cls-5" d="M954.94,421.71c1.44-1.41,3.21-1.96,4.69-.56,5.2-.11,5.01-.95,9.78,2.66,3.1,1.8,7.03,1.64,10.16,3.37,1.95,1.08,3.51,2.84,5.61,3.58,1.16.4,2.73.8,2.77,2.03.03,1.08-1.2,1.66-1.93,2.45-2.07,3.48-1.77,8.06-2.82,11.95-.87,7.27-6.13,16.27-13.54,17.85-.16-.45.66-.52.7-.9.02-.21-.38-.29-.35-.09.85,3.51,3.4,4.91,2.33,8.99,1.45,3.88.47,7.64.18,11.64.39,3.45-.22,6.96-2.02,9.81.15,1.86.28,3.82-.78,5.49-.28-1.58-1.5-2.45-3.05-1.95-3.92.77-7.8-1.21-11.51-2.15-4.18-5.15-12.76-2.55-16.15-8.44-2.96,4.67-15.14,11.41-20.62,12-3.13-.91-6.21-2.82-9.6-1.71-2.16-4.67-1.82-10.23-4.47-14.75.38-5.92,2.63-11.83,1.95-17.93-10.4-4.43-14.71-15.01-22.33-22.19,14.51-8.09,11.68-13.95,31.49-15.93-1.21-4.28,1.2-8.35,4.53-10.9,4.6-4.34,7.58-10.06,11.14-15.29,3.66-5.03,18.35,12.42,20.3,16.18,1.09,1.78,1.94,3.44,3.55,4.77Z"/><path class="cls-1" d="M934.76,418.79s.82,18.18,1.11,19.41c.4,2.71.27,4.26,2.81,4.71l2.39-7.85-1.26,8.29,2.2.79,1.01-.68.21,1.2.85.57,4.6-3.1-3.97,3.94,1.8,2.47,12.95-4.7-11.96,7.38.24,1.65,4.67.67-4.44,1.05-.63,4.43-.78.53,4.6,2.66-5.02-1.9-.58.73.25,1.17,11.88,17.15-14.04-15.5-1.65-.16-1.44.84,1.31,3.93-2.29-4.01-2.09.27-.76,3.25-.6-3.08-.83-.04-1.23,4.24-.22-4.8-1.66-.49-11.21,16.04,9.48-16.81-1.62-1.52c-.04-.88-.76-2.52-1.2-3.27l-1.57.05.66-.91.11-2.62-2.02-.31,1.73-1.3s.21-1.28.07-1.39-29.81-7.43-29.81-7.43l30.32,5.61v-1.8s.74-.57.74-.57l-2.24-2.44,2.9,1.33c.65-.73,2.13-2.01,3.11-2.23l-.73-1.98,2.13.97.98-.33.74-24.11Z"/><path class="cls-2" d="M932.89,458.92c.35.16.68.16.95.05.41,1.49,2.53,1.92,3.76,1.19.48.16,1.05.05,1.38-.31,2.46.68,8.92-.2,6.89-3.92,1.28-2.46-1.17-4.75-3.08-5.97-.61-1.55-2.44-1.32-3.72-.94,1.29-3.83-8.88-1.4-7.08,1.14-.69.93-1.09,2.38-.62,3.47-1.14,1.82-.68,4.27,1.52,5.29Z"/><path class="cls-4" d="M936.1,452.63c.36-3.52,5.63-.7,7.22.57,4.42,6.68-8.48,4.29-7.22-.57Z"/></g></g></svg>